<svg width="26" height="29" viewBox="0 0 26 29" fill="none" xmlns="http://www.w3.org/2000/svg">
<mask id="mask0_13_1627" style="mask-type:luminance" maskUnits="userSpaceOnUse" x="0" y="0" width="26" height="29">
<path d="M0.257324 0.0549316H25.607V28.3572H0.257324V0.0549316Z" fill="white"/>
</mask>
<g mask="url(#mask0_13_1627)">
<path fill-rule="evenodd" clip-rule="evenodd" d="M12.0072 0.0848769C10.2517 0.230135 8.72325 0.656226 7.20611 1.42394C3.65912 3.21923 1.14507 6.60751 0.465587 10.508C0.363906 11.0901 0.313873 11.5597 0.287511 12.1725C0.151399 15.351 1.18004 18.382 3.23464 20.8552C3.52462 21.2043 4.25898 21.9484 4.6345 22.2744C6.3819 23.7883 8.43704 24.7648 10.7762 25.193C11.0167 25.2371 14.4136 25.9575 18.3237 26.7946C22.2344 27.6312 25.4452 28.3118 25.4592 28.3075C25.4731 28.3026 24.2406 27.1669 22.7197 25.7837C21.1988 24.4 19.9549 23.2616 19.9555 23.2536C19.956 23.246 20.0814 23.1535 20.2342 23.0481C21.4102 22.2362 22.5378 21.0876 23.4062 19.8169C24.4466 18.2943 25.1552 16.4948 25.4355 14.6634C25.5312 14.0367 25.6259 12.8133 25.6033 12.5023C25.5958 12.4044 25.577 12.1332 25.5608 11.9003C25.3677 9.06076 24.3025 6.48754 22.441 4.36354C22.1424 4.02245 21.5253 3.40914 21.1988 3.12831C18.8671 1.12213 15.9334 0.0412994 12.869 0.0590532C12.5457 0.0606672 12.1578 0.0725031 12.0072 0.0848769ZM6.31089 10.4843C6.32057 16.2032 6.31142 15.8454 6.46852 16.5087C6.67134 17.362 7.11734 18.1421 7.74356 18.7403C8.87712 19.8228 10.5777 20.4485 12.9922 20.6707C13.6663 20.7325 14.9306 20.7115 15.4589 20.6292C17.1111 20.3721 18.2328 19.769 19.0199 18.7151C19.4853 18.0915 19.7387 17.4174 19.9797 16.1596C20.1734 15.1498 20.4117 14.5262 20.7103 14.2486C20.9271 14.048 21.2709 13.9054 21.6991 13.8403L21.924 13.8059V9.8005L21.6846 9.74025C20.9395 9.55302 20.3837 9.46856 19.7629 9.44758C18.6863 9.41099 17.8632 9.63588 17.0159 10.1975C16.6877 10.4149 16.2218 10.8582 16.0061 11.1573C15.4993 11.861 15.2502 12.7552 15.2491 13.8704C15.2486 14.5117 15.1846 14.8652 14.9968 15.2622C14.8655 15.5393 14.589 15.8325 14.3324 15.967C13.9569 16.1639 13.4576 16.244 12.9142 16.194C11.6462 16.0778 11.0641 15.4048 11.0635 14.0544V13.7332H13.2521V9.27381H10.9538V5.2254H6.30174L6.31089 10.4843ZM0.265991 12.7207C0.265991 12.8036 0.270833 12.8375 0.277289 12.796C0.283745 12.7546 0.283745 12.6868 0.277289 12.6454C0.270833 12.6045 0.265991 12.6379 0.265991 12.7207Z" fill="#008DCB"/>
</g>
</svg>
