<svg width="49" height="60" viewBox="0 0 49 60" fill="none" xmlns="http://www.w3.org/2000/svg">
<path fill-rule="evenodd" clip-rule="evenodd" d="M34.8503 0.0546389C33.9713 0.182886 33.2262 0.490579 32.5135 1.01928C30.536 2.48678 29.8922 5.14601 30.9806 7.35055C31.4839 8.36993 32.2813 9.16274 33.3199 9.67623L33.8035 9.91549V14.2303L30.3084 17.5997L26.8128 20.9686V27.3946H30.3282V22.4695L33.8233 19.1001L37.3189 15.7307L37.3199 9.88812L37.5927 9.77761C38.425 9.44103 39.2888 8.70551 39.8352 7.86708C40.7958 6.39452 40.9124 4.42975 40.1333 2.86189C39.419 1.42582 38.0752 0.398829 36.5145 0.0972191C36.0709 0.0115519 35.2842 -0.00872448 34.8503 0.0546389ZM35.0672 2.31696C34.317 2.44217 33.5663 3.00281 33.1907 3.71755C32.5961 4.84845 32.9443 6.36512 33.9632 7.07834C34.0489 7.13815 34.0509 7.15032 33.9987 7.25018C33.9211 7.39718 33.5475 7.79713 33.3189 7.9781L33.1304 8.12763L33.2596 8.15197C33.4948 8.19556 34.0778 8.09164 34.7454 7.88736C35.4277 7.67801 35.6598 7.61819 36.0937 7.53962C37.4837 7.28769 38.4468 5.86024 38.1721 4.45864C37.9744 3.44736 37.2028 2.61654 36.2306 2.36765C35.9412 2.29415 35.3572 2.2683 35.0672 2.31696ZM34.055 4.55698C33.8101 4.66343 33.7919 5.03702 34.0235 5.1891C34.3353 5.39338 34.7296 5.02536 34.5527 4.69537C34.5097 4.61477 34.3165 4.4992 34.2303 4.50173C34.202 4.50224 34.1229 4.52758 34.055 4.55698ZM35.4033 4.54583C35.162 4.67813 35.1154 4.94882 35.3014 5.13486C35.5128 5.34573 35.8459 5.24992 35.9194 4.95643C35.9908 4.67154 35.6573 4.40593 35.4033 4.54583ZM36.7461 4.53569C36.4623 4.65735 36.4415 5.08265 36.7127 5.20633C36.9793 5.32748 37.2358 5.17186 37.2383 4.88698C37.2409 4.63048 36.9722 4.43887 36.7461 4.53569ZM18.3414 11.4681C16.2494 11.8519 14.6531 13.403 14.2075 15.4844C14.0859 16.0536 14.0859 16.9458 14.2075 17.515C14.5365 19.0535 15.5032 20.3223 16.8845 21.0294C17.0994 21.1389 17.3504 21.2514 17.4426 21.2783L17.6104 21.3285V27.3946H21.1648V21.2149L21.4908 21.0527C21.9678 20.815 22.4539 20.4515 22.8721 20.0192C23.8154 19.0444 24.296 17.8562 24.2945 16.5002C24.2924 14.1446 22.7433 12.1504 20.4541 11.5558C20.0547 11.4519 19.9189 11.4362 19.3283 11.424C18.8543 11.4144 18.5644 11.4271 18.3414 11.4681ZM18.6516 13.9535C17.4102 14.2237 16.5439 15.2943 16.5439 16.559C16.5439 17.3138 16.7872 17.8886 17.3428 18.4472L17.689 18.7955L17.5754 18.9602C17.4502 19.1412 17.0771 19.5173 16.8602 19.681L16.7218 19.7855L17.1562 19.7627C17.6084 19.7388 17.9232 19.6674 18.7362 19.4028C18.975 19.3247 19.3359 19.235 19.5382 19.2035C20.1667 19.1052 20.6498 18.8634 21.0827 18.4305C22.3986 17.1156 21.9865 14.904 20.2818 14.1314C19.7972 13.9114 19.1631 13.8425 18.6516 13.9535ZM43.2371 16.0693C42.019 16.1682 40.8794 16.7177 40.003 17.6296C39.3182 18.3423 38.8888 19.1635 38.6739 20.1712C38.5786 20.6188 38.5791 21.7137 38.6754 22.138L38.7408 22.428L33.8035 27.4088V32.8809L26.8326 32.9012L26.8229 46.4508L26.8128 59.9999H30.3282V36.4343H37.3189V28.8718L39.0526 27.1169L40.7867 25.362L40.919 25.438C41.5698 25.8116 41.984 25.9819 42.5862 26.1218C42.9532 26.2075 43.1235 26.2247 43.6183 26.2257C44.4998 26.2277 45.1222 26.096 45.8456 25.7538C47.6532 24.8997 48.772 23.1452 48.7725 21.1653C48.7725 20.376 48.6397 19.7419 48.3305 19.0525C47.4449 17.0791 45.4198 15.8929 43.2371 16.0693ZM17.5942 16.266C17.4598 16.4262 17.4624 16.5839 17.6018 16.74C17.6895 16.8383 17.7432 16.8632 17.8674 16.8632C17.9911 16.8632 18.0448 16.8383 18.1325 16.74C18.2719 16.5839 18.275 16.4262 18.1401 16.266C18.055 16.1651 18.0093 16.1449 17.8674 16.1449C17.725 16.1449 17.6793 16.1651 17.5942 16.266ZM18.939 16.2488C18.6491 16.5382 18.9912 17.0041 19.3587 16.8201C19.7181 16.6411 19.5944 16.1449 19.1904 16.1449C19.084 16.1449 19.014 16.1738 18.939 16.2488ZM20.3218 16.1895C20.2818 16.2128 20.224 16.2919 20.1931 16.3659C20.1171 16.5479 20.1997 16.7562 20.3771 16.8307C20.7492 16.9868 21.068 16.5321 20.7847 16.2488C20.6721 16.1368 20.4597 16.1094 20.3218 16.1895ZM4.49774 16.8991C1.875 17.1947 -0.120181 19.5386 0.00603856 22.1755C0.0825815 23.7718 0.856121 25.1937 2.14772 26.1127C3.70494 27.2208 5.81722 27.3597 7.48849 26.4645L7.8124 26.2906L9.23326 27.6025L10.6536 28.9144L10.6567 32.6741L10.6592 36.4343H17.6104V59.9999H21.1653L21.1552 46.4508L21.1451 32.9012L17.6601 32.9159L14.1746 32.9301L14.1726 30.1527L14.1705 27.3749L12.076 25.4405C10.0656 23.5837 9.98247 23.5016 10.0038 23.3881C10.0159 23.3232 10.0539 23.1544 10.0879 23.0129C10.1847 22.6115 10.208 21.6509 10.132 21.1729C9.70316 18.467 7.22997 16.5909 4.49774 16.8991ZM43.088 18.4954C42.9481 18.5258 42.7018 18.613 42.5401 18.69C41.5932 19.1392 41.0193 20.0415 41.0204 21.0791C41.0214 21.879 41.3002 22.5091 41.8983 23.0626L42.1766 23.3201L42.0053 23.5513C41.8304 23.7875 41.5622 24.0536 41.3737 24.1768C41.212 24.2827 41.2459 24.3157 41.5151 24.3152C41.8486 24.3147 42.3474 24.2067 43.1261 23.9675C43.4834 23.858 43.9361 23.7399 44.1318 23.7059C45.1476 23.5285 45.9931 22.7529 46.245 21.7675C46.5593 20.5413 45.9749 19.2669 44.8424 18.7073C44.3137 18.4457 43.6735 18.3687 43.088 18.4954ZM4.40447 19.4023C3.55033 19.6172 2.85029 20.2615 2.53297 21.1247C2.43514 21.3893 2.42601 21.4633 2.4255 21.987C2.425 22.5091 2.43412 22.5846 2.53043 22.8487C2.68251 23.2659 2.86043 23.5447 3.17522 23.8605C3.6218 24.3076 4.11553 24.5489 4.75474 24.632C4.90681 24.6518 5.19119 24.7222 5.38635 24.7886C6.28915 25.0958 7.09868 25.2606 7.36024 25.1906C7.46568 25.1627 7.46416 25.1602 7.22135 24.9661C7.08651 24.8581 6.88121 24.6492 6.76564 24.5017L6.55527 24.2336L6.90048 23.8899C7.45351 23.3389 7.70798 22.7392 7.70798 21.987C7.70798 21.5226 7.62991 21.2013 7.41144 20.7633C7.11845 20.1763 6.51421 19.6598 5.88007 19.454C5.54298 19.3445 4.74562 19.3166 4.40447 19.4023ZM42.2162 20.6893C41.8446 20.8317 41.9363 21.3949 42.3312 21.3949C42.5142 21.3949 42.6328 21.3113 42.6881 21.1435C42.7844 20.8525 42.5015 20.5803 42.2162 20.6893ZM43.5326 20.7025C43.1772 20.8566 43.2898 21.3949 43.6776 21.3949C44.0714 21.3949 44.1779 20.8525 43.8139 20.7004C43.6568 20.635 43.6877 20.6345 43.5326 20.7025ZM44.8379 20.707C44.6042 20.8226 44.5581 21.0963 44.7411 21.2793C44.8262 21.3645 44.8936 21.3949 45.0006 21.3949C45.1076 21.3949 45.175 21.3645 45.2601 21.2793C45.4457 21.0943 45.396 20.8191 45.1572 20.706C45.0001 20.6315 44.992 20.6315 44.8379 20.707ZM3.55438 21.6078C3.50268 21.6362 3.43628 21.7026 3.40789 21.7543C3.20614 22.1172 3.69024 22.4782 3.98475 22.1842C4.15507 22.0138 4.11249 21.7188 3.90212 21.6098C3.76627 21.5399 3.67807 21.5394 3.55438 21.6078ZM4.8105 21.6625C4.71216 21.7502 4.68732 21.8035 4.68732 21.9277C4.68732 22.0513 4.71216 22.1051 4.8105 22.1928C4.88654 22.2607 4.97829 22.3028 5.05077 22.3028C5.12326 22.3028 5.21501 22.2607 5.29105 22.1928C5.38939 22.1051 5.41423 22.0513 5.41423 21.9277C5.41423 21.8035 5.38939 21.7502 5.29105 21.6625C5.21501 21.5946 5.12326 21.5525 5.05077 21.5525C4.97829 21.5525 4.88654 21.5946 4.8105 21.6625ZM6.18979 21.6108C5.96168 21.7386 5.96726 22.1248 6.19841 22.2445C6.37127 22.3337 6.50458 22.3165 6.63384 22.1872C6.93799 21.8831 6.56592 21.4 6.18979 21.6108Z" fill="#008DCB"/>
</svg>
