<svg width="208" height="49" viewBox="0 0 208 49" fill="none" xmlns="http://www.w3.org/2000/svg">
<mask id="mask0_357_1767" style="mask-type:luminance" maskUnits="userSpaceOnUse" x="0" y="0" width="41" height="49">
<path d="M0.722656 0H40.148V48.5058H0.722656V0Z" fill="white"/>
</mask>
<g mask="url(#mask0_357_1767)">
<path fill-rule="evenodd" clip-rule="evenodd" d="M28.8806 0.0440047C28.1709 0.147892 27.5685 0.396341 26.993 0.823981C25.3957 2.01016 24.8757 4.16045 25.7546 5.94247C26.1614 6.76642 26.8056 7.40733 27.6444 7.82288L28.0352 8.01636V11.5045L22.3879 16.9517V22.1466H25.2275V18.1649L28.0511 15.4413L30.8747 12.7171L30.8753 10.3557L30.8758 7.99383L31.0963 7.90478C31.7685 7.6327 32.466 7.03796 32.908 6.36022C33.6835 5.16964 33.7781 3.58111 33.1487 2.31358C32.5721 1.15268 31.486 0.322136 30.225 0.0786337C29.8672 0.00937579 29.2312 -0.00711424 28.8806 0.0440047ZM29.0564 1.87329C28.4502 1.97443 27.8433 2.42736 27.5399 3.00561C27.0595 3.9197 27.3409 5.14601 28.1638 5.72206C28.233 5.77098 28.2352 5.78032 28.1924 5.86112C28.1297 5.9804 27.8285 6.3036 27.6433 6.44981L27.491 6.57074L27.5954 6.58998C27.7856 6.62571 28.2567 6.54161 28.7959 6.37616C29.3472 6.20741 29.5347 6.15904 29.8853 6.09528C31.0083 5.89135 31.7861 4.7376 31.5646 3.60474C31.4046 2.78684 30.7813 2.11515 29.9958 1.91452C29.7622 1.85461 29.2901 1.83372 29.0564 1.87329ZM28.238 3.68389C28.0407 3.77019 28.0258 4.07196 28.2127 4.19508C28.465 4.35998 28.7833 4.06261 28.6403 3.79603C28.6057 3.73117 28.4496 3.63717 28.3798 3.63937C28.3567 3.63992 28.293 3.66026 28.238 3.68389ZM29.3274 3.6751C29.1328 3.78228 29.0949 4.00105 29.245 4.15111C29.4159 4.32151 29.6853 4.244 29.7446 4.0071C29.8023 3.77679 29.533 3.56187 29.3274 3.6751ZM30.4125 3.66685C30.1833 3.76524 30.1662 4.10879 30.3855 4.20883C30.601 4.30722 30.8082 4.18134 30.8099 3.95103C30.8121 3.74381 30.595 3.5888 30.4125 3.66685ZM15.5435 9.27125C13.8538 9.58181 12.5637 10.8356 12.2042 12.5181C12.1058 12.9787 12.1058 13.6994 12.2042 14.16C12.4703 15.4033 13.2508 16.4296 14.3672 17.0007C14.5403 17.0897 14.7431 17.1804 14.8179 17.2024L14.9531 17.2425V22.1466H17.8251V17.1507L18.0884 17.0199C18.4737 16.8275 18.8662 16.5334 19.2042 16.1844C19.9661 15.3962 20.3541 14.4359 20.353 13.3393C20.3514 11.4353 19.0998 9.82257 17.2507 9.34216C16.9281 9.25806 16.8181 9.24542 16.341 9.23552C15.9579 9.22783 15.7237 9.23827 15.5435 9.27125ZM15.7946 11.2808C14.7915 11.499 14.0918 12.3648 14.0918 13.3872C14.0918 13.9967 14.2886 14.4617 14.7371 14.913L15.0169 15.195L14.9251 15.328C14.8239 15.4742 14.5222 15.7782 14.3468 15.9107L14.2352 15.9953L14.5865 15.9766C14.9515 15.9579 15.206 15.8997 15.8628 15.6859C16.0557 15.6226 16.3471 15.5506 16.5109 15.5248C17.0182 15.4451 17.4085 15.25 17.7581 14.8998C18.8217 13.8368 18.4886 12.0487 17.1116 11.4243C16.7197 11.2468 16.2074 11.1907 15.7946 11.2808ZM35.6563 12.9914C34.6718 13.0711 33.7517 13.5152 33.0437 14.2523C32.4902 14.8289 32.1434 15.4924 31.9697 16.307C31.8927 16.6687 31.8933 17.5542 31.9708 17.8972L32.0241 18.1313L30.0294 20.1447L28.0352 22.1582V26.5824L25.2192 26.5901L22.4038 26.5984L22.3873 48.5059H25.2275V29.4544H30.8747V23.3405L32.2758 21.9218L33.6764 20.5031L33.7836 20.5647C34.3091 20.867 34.6438 21.0044 35.1303 21.1177C35.4271 21.1869 35.5645 21.2007 35.9641 21.2018C36.6759 21.2034 37.1789 21.0968 37.7637 20.8203C39.2236 20.1299 40.1273 18.7118 40.1278 17.1111C40.1278 16.473 40.0212 15.9601 39.7711 15.4028C39.0554 13.8071 37.4196 12.8485 35.6563 12.9914ZM14.9399 13.1502C14.8316 13.2794 14.8333 13.4069 14.9465 13.5334C15.0174 13.6125 15.0603 13.6329 15.1609 13.6329C15.2609 13.6329 15.3038 13.6125 15.3747 13.5334C15.4879 13.4069 15.4901 13.2794 15.3813 13.1502C15.3126 13.0683 15.2752 13.0519 15.1609 13.0519C15.046 13.0519 15.0086 13.0683 14.9399 13.1502ZM16.0266 13.136C15.7924 13.3701 16.0689 13.7466 16.3658 13.5982C16.656 13.4531 16.5559 13.0519 16.2294 13.0519C16.1437 13.0519 16.0871 13.0755 16.0266 13.136ZM17.1441 13.0881C17.1116 13.1068 17.0649 13.1711 17.0396 13.2305C16.9781 13.3778 17.0446 13.546 17.1881 13.6065C17.4887 13.7329 17.7465 13.3652 17.5173 13.136C17.4266 13.0453 17.2551 13.0233 17.1441 13.0881ZM4.35994 13.6614C2.24098 13.9011 0.628808 15.7958 0.731046 17.9274C0.793158 19.218 1.41813 20.3674 2.46139 21.1105C3.71903 22.0059 5.42574 22.1186 6.77572 21.3947L7.03792 21.2545L8.18562 22.3148L9.33332 23.3757L9.33552 26.4148L9.33772 29.4544H14.9531V48.5059H17.8251L17.8169 37.5521L17.8092 26.5984L14.9932 26.6099L12.1773 26.622L12.1756 24.3766L12.174 22.1307L10.4821 20.5674C8.85786 19.0658 8.7908 18.9998 8.80839 18.908C8.81773 18.8552 8.84852 18.7189 8.876 18.6046C8.9546 18.2803 8.97329 17.5031 8.91173 17.1166C8.56544 14.9295 6.5674 13.4124 4.35994 13.6614ZM35.5359 14.9526C35.4227 14.9768 35.2237 15.0477 35.0934 15.1098C34.3283 15.4731 33.8649 16.202 33.8655 17.0408C33.866 17.6877 34.0914 18.1967 34.5745 18.6447L34.7994 18.853L34.6614 19.0399C34.5201 19.2307 34.303 19.4456 34.1507 19.5456C34.0199 19.6308 34.0474 19.6577 34.2651 19.6572C34.5344 19.6566 34.9373 19.5698 35.5667 19.3763C35.8553 19.2873 36.2208 19.1922 36.3791 19.1647C37.1997 19.0212 37.8824 18.3946 38.0864 17.5976C38.3398 16.606 37.8681 15.5765 36.9535 15.1235C36.5259 14.9125 36.0086 14.8498 35.5359 14.9526ZM4.28464 15.6859C3.59426 15.8595 3.0292 16.3801 2.77251 17.0776C2.6939 17.292 2.68621 17.3519 2.68566 17.7751C2.68566 18.1973 2.6928 18.2583 2.77086 18.4716C2.89343 18.8091 3.0369 19.0344 3.29139 19.2895C3.65197 19.6511 4.05103 19.8463 4.56772 19.9133C4.69029 19.9293 4.92005 19.9864 5.07781 20.0403C5.80666 20.2882 6.46132 20.4218 6.67239 20.3652C6.75759 20.3421 6.75649 20.3404 6.56026 20.1832C6.45087 20.0964 6.28542 19.9271 6.19198 19.8078L6.02213 19.5912L6.30136 19.3131C6.74769 18.8684 6.95327 18.3831 6.95327 17.7751C6.95327 17.3997 6.8906 17.1403 6.71361 16.7857C6.47726 16.3114 5.98915 15.8936 5.47686 15.7276C5.20423 15.6386 4.56002 15.616 4.28464 15.6859ZM34.8312 16.7258C34.5311 16.8413 34.6053 17.2964 34.9247 17.2964C35.0725 17.2964 35.1682 17.2288 35.2127 17.0935C35.2902 16.8577 35.0621 16.6379 34.8312 16.7258ZM35.8948 16.7363C35.6079 16.8616 35.6986 17.2964 36.0119 17.2964C36.3302 17.2964 36.4159 16.8577 36.1224 16.7352C35.9954 16.6819 36.0202 16.6819 35.8948 16.7363ZM36.9496 16.7407C36.7606 16.8336 36.7232 17.0551 36.871 17.2029C36.9403 17.2722 36.9947 17.2964 37.081 17.2964C37.1673 17.2964 37.2217 17.2722 37.291 17.2029C37.4405 17.0534 37.4004 16.8308 37.2074 16.7396C37.0805 16.6791 37.0739 16.6791 36.9496 16.7407ZM3.59755 17.4684C3.55578 17.4915 3.50246 17.5448 3.47938 17.5872C3.31668 17.8807 3.70749 18.172 3.94549 17.9345C4.08291 17.7966 4.04883 17.5586 3.87843 17.4701C3.76905 17.4135 3.69759 17.4129 3.59755 17.4684ZM4.61279 17.5129C4.53309 17.5839 4.5133 17.6267 4.5133 17.7273C4.5133 17.8274 4.53309 17.8702 4.61279 17.9411C4.6738 17.9961 4.74801 18.0302 4.80682 18.0302C4.86509 18.0302 4.93929 17.9961 5.00085 17.9411C5.08 17.8702 5.10034 17.8274 5.10034 17.7273C5.10034 17.6267 5.08 17.5839 5.00085 17.5129C4.93929 17.458 4.86509 17.4239 4.80682 17.4239C4.74801 17.4239 4.6738 17.458 4.61279 17.5129ZM5.72641 17.4712C5.54282 17.5745 5.54722 17.8867 5.73411 17.9835C5.87372 18.0555 5.98091 18.0412 6.08534 17.9367C6.33159 17.691 6.03093 17.3002 5.72641 17.4712Z" fill="#008DCB"/>
</g>
<path d="M49.2004 34.8531V18.6297H43.2761V14.8069H60.1573V18.6297H54.233V34.8531H49.2004Z" fill="#008DCB"/>
<path d="M60.0771 34.8531L66.8494 14.8069H72.3424L79.1146 34.8531H73.9286L72.6787 30.7598H66.3779L65.1243 34.8531H60.0771ZM71.5749 27.127L69.5283 20.5156L67.4816 27.127H71.5749Z" fill="#008DCB"/>
<path d="M94.4888 34.8519H81.1052V14.8057H86.1414V31.029H94.4888V34.8519Z" fill="#008DCB"/>
<path d="M114.451 34.8519H108.366L102.902 26.7055L101.919 28.0796V34.8519H96.8827V14.8057H101.919V23.7049L108.326 14.8057H114.155L107.006 24.1069L114.451 34.8519Z" fill="#008DCB"/>
<path d="M122.276 35.2142C120.741 35.2142 119.393 35.0661 118.231 34.7719C117.068 34.475 115.988 34.1068 114.993 33.6682V28.9024H115.449C116.455 29.7558 117.564 30.4109 118.775 30.8687C119.986 31.3274 121.162 31.5558 122.302 31.5558C122.589 31.5558 122.968 31.5247 123.439 31.4608C123.911 31.3977 124.291 31.299 124.579 31.1647C124.927 31.0112 125.222 30.7983 125.463 30.5251C125.706 30.2501 125.829 29.8883 125.829 29.4397C125.829 28.9381 125.631 28.5297 125.237 28.2154C124.842 27.901 124.371 27.6726 123.822 27.5283C123.14 27.3483 122.41 27.1774 121.633 27.0166C120.858 26.8558 120.135 26.6584 119.462 26.4245C117.91 25.8763 116.796 25.1408 116.122 24.2171C115.449 23.2943 115.113 22.1366 115.113 20.7451C115.113 18.8693 115.907 17.3498 117.496 16.1876C119.084 15.0254 121.068 14.4443 123.446 14.4443C124.639 14.4443 125.826 14.5668 127.006 14.8098C128.187 15.051 129.244 15.3781 130.178 15.7893V20.365H129.732C128.988 19.7291 128.08 19.1918 127.006 18.7533C125.933 18.3129 124.832 18.0918 123.702 18.0918C123.263 18.0918 122.868 18.1237 122.518 18.1868C122.167 18.248 121.799 18.3686 121.414 18.5486C121.1 18.693 120.827 18.9058 120.599 19.1882C120.37 19.4714 120.255 19.7876 120.255 20.1384C120.255 20.6501 120.436 21.0576 120.8 21.3591C121.165 21.6588 121.868 21.9292 122.909 22.1704C123.581 22.3239 124.229 22.4729 124.853 22.6163C125.476 22.7607 126.143 22.958 126.852 23.2084C128.243 23.7109 129.277 24.3852 129.955 25.2331C130.632 26.081 130.971 27.2012 130.971 28.5918C130.971 30.5854 130.187 32.1871 128.621 33.3978C127.057 34.6093 124.942 35.2142 122.276 35.2142Z" fill="#008DCB"/>
<path d="M137.392 34.8519V18.6285H131.467V14.8057H148.349V18.6285H142.424V34.8519H137.392Z" fill="#008DCB"/>
<path d="M158.529 35.2697C155.836 35.2697 153.765 34.6192 152.316 33.3181C150.866 32.017 150.141 30.1147 150.141 27.6094V14.8069H155.177V27.3134C155.177 28.7049 155.439 29.7419 155.963 30.4235C156.489 31.1061 157.345 31.4469 158.529 31.4469C159.685 31.4469 160.536 31.1198 161.08 30.4637C161.622 29.8086 161.895 28.7588 161.895 27.3134V14.8069H166.927V27.5984C166.927 30.0672 166.22 31.9622 164.808 33.2852C163.394 34.6082 161.301 35.2697 158.529 35.2697Z" fill="#008DCB"/>
<path d="M184.214 18.6297H175.801V22.4124H183.542V26.2352H175.801V34.8531H170.79V14.8069H184.214V18.6297Z" fill="#008DCB"/>
<path d="M200.234 18.6297H191.821V22.4124H199.562V26.2352H191.821V34.8531H186.811V14.8069H200.234V18.6297Z" fill="#008DCB"/>
<path d="M50.1991 44.561C50.1991 45.2664 50.0439 45.8989 49.7353 46.4586C49.4257 47.0182 49.0347 47.4476 48.5623 47.7466C48.1684 48.0025 47.739 48.1673 47.2742 48.2411C46.8085 48.313 46.3159 48.3484 45.7946 48.3484H43.4178V40.7583H45.7716C46.3054 40.7583 46.8046 40.7928 47.2704 40.8618C47.7381 40.9289 48.1751 41.0918 48.5814 41.3525C49.0817 41.6726 49.4765 42.1029 49.7659 42.6443C50.0544 43.1868 50.1991 43.825 50.1991 44.561ZM48.2403 44.5457C48.2403 44.0454 48.154 43.6171 47.9834 43.2615C47.8119 42.9069 47.5474 42.629 47.1899 42.4297C46.9312 42.2869 46.6609 42.2092 46.3772 42.1958C46.0936 42.1805 45.7543 42.1728 45.3614 42.1728H45.323V46.9262H45.3614C45.7878 46.9262 46.1482 46.9186 46.4424 46.9032C46.7356 46.8879 47.0155 46.7978 47.2819 46.6311C47.5934 46.4346 47.831 46.1624 47.9949 45.8145C48.1578 45.4676 48.2403 45.044 48.2403 44.5457Z" fill="#008DCB"/>
<path d="M57.0298 48.3484H52.9396V47.0221H54.0321V42.0808H52.9396V40.7583H57.0298V42.0808H55.9373V47.0221H57.0298V48.3484Z" fill="#008DCB"/>
<path d="M66.5568 47.9158C66.2243 48.0519 65.7921 48.1842 65.2611 48.3145C64.7293 48.442 64.205 48.5062 63.6895 48.5062C62.4954 48.5062 61.5437 48.1631 60.8336 47.475C60.1254 46.7878 59.7717 45.8113 59.7717 44.5463C59.7717 43.356 60.1254 42.4024 60.8336 41.6866C61.5437 40.9688 62.5136 40.6094 63.7431 40.6094C64.3795 40.6094 64.8951 40.6698 65.2918 40.7895C65.6905 40.9103 66.1016 41.0751 66.5262 41.2841V43.0627H66.3537C66.2617 42.9918 66.1294 42.8902 65.9588 42.7599C65.7873 42.6277 65.6196 42.5146 65.4567 42.4226C65.2669 42.3152 65.0474 42.2232 64.7973 42.1466C64.5462 42.068 64.2817 42.0277 64.0038 42.0277C63.676 42.0277 63.379 42.0795 63.1106 42.1811C62.8423 42.2836 62.6027 42.4398 62.3938 42.6487C62.1916 42.8538 62.0315 43.1126 61.9146 43.4269C61.7996 43.7393 61.7421 44.1016 61.7421 44.5156C61.7421 45.403 61.9644 46.0566 62.4091 46.4783C62.8538 46.9 63.4614 47.1108 64.2338 47.1108C64.3028 47.1108 64.3814 47.1099 64.4715 47.107C64.5635 47.1022 64.644 47.0955 64.713 47.0878V45.6005H63.2409V44.1783H66.5568V47.9158Z" fill="#008DCB"/>
<path d="M73.6996 48.3484H69.6094V47.0221H70.7019V42.0808H69.6094V40.7583H73.6996V42.0808H72.6071V47.0221H73.6996V48.3484Z" fill="#008DCB"/>
<path d="M78.3413 48.3484V42.2035H76.0988V40.7583H82.4929V42.2035H80.2503V48.3484H78.3413Z" fill="#008DCB"/>
<path d="M84.3827 48.3484L86.9472 40.7583H89.0288L91.5933 48.3484H89.6306L89.1553 46.7997H86.7671L86.2956 48.3484H84.3827ZM88.7374 45.4235L87.9631 42.9165L87.1887 45.4235H88.7374Z" fill="#008DCB"/>
<path d="M99.3362 48.3484H94.2684V40.7583H96.1736V46.8994H99.3362V48.3484Z" fill="#008DCB"/>
<path d="M109.493 48.4867C108.91 48.4867 108.398 48.4302 107.959 48.3181C107.519 48.2059 107.11 48.067 106.733 47.9002V46.0947H106.905C107.286 46.4167 107.704 46.6649 108.163 46.8384C108.623 47.0128 109.068 47.099 109.5 47.099C109.61 47.099 109.754 47.0875 109.934 47.0645C110.112 47.0415 110.256 47.0051 110.363 46.9534C110.495 46.8949 110.608 46.8144 110.7 46.7119C110.792 46.6074 110.838 46.4694 110.838 46.2979C110.838 46.1091 110.763 45.9557 110.612 45.8379C110.464 45.7181 110.286 45.6299 110.079 45.5733C109.82 45.5072 109.544 45.443 109.247 45.3817C108.953 45.3203 108.68 45.2456 108.427 45.1555C107.839 44.9485 107.417 44.6706 107.162 44.3198C106.906 43.97 106.779 43.5321 106.779 43.005C106.779 42.2948 107.079 41.7198 107.68 41.2799C108.282 40.841 109.034 40.6206 109.934 40.6206C110.386 40.6206 110.835 40.6666 111.283 40.7586C111.729 40.8487 112.13 40.9723 112.483 41.1304V42.8631H112.318C112.034 42.6207 111.689 42.4166 111.283 42.2498C110.877 42.084 110.46 42.0006 110.033 42.0006C109.865 42.0006 109.713 42.014 109.581 42.039C109.451 42.062 109.313 42.107 109.167 42.1731C109.046 42.2297 108.943 42.3111 108.856 42.4185C108.769 42.5239 108.726 42.6427 108.726 42.775C108.726 42.9695 108.795 43.1238 108.933 43.2388C109.071 43.3519 109.336 43.4535 109.73 43.5455C109.985 43.6049 110.231 43.6605 110.466 43.7142C110.704 43.7678 110.957 43.8426 111.225 43.9365C111.752 44.1282 112.143 44.385 112.398 44.707C112.656 45.0271 112.786 45.4507 112.786 45.9797C112.786 46.7339 112.489 47.3405 111.896 47.8006C111.303 48.2586 110.502 48.4867 109.493 48.4867Z" fill="#008DCB"/>
<path d="M115.681 48.3482V40.7581H120.814V42.2032H117.578V43.5334H120.561V44.9825H117.578V46.8992H120.814V48.3482H115.681Z" fill="#008DCB"/>
<path d="M131.041 48.3482H128.718L126.602 45.5651H125.919V48.3482H124.022V40.7581H127.077C127.496 40.7581 127.861 40.7849 128.173 40.8386C128.488 40.8903 128.777 40.9986 129.044 41.1644C129.314 41.3388 129.529 41.5592 129.688 41.8276C129.849 42.094 129.929 42.4323 129.929 42.8434C129.929 43.4242 129.799 43.8957 129.538 44.2579C129.277 44.6183 128.927 44.9058 128.488 45.1205L131.041 48.3482ZM127.974 43.0811C127.974 42.8923 127.937 42.7284 127.863 42.5904C127.788 42.4524 127.667 42.347 127.499 42.2722C127.378 42.2215 127.246 42.1898 127.1 42.1764C126.954 42.1611 126.772 42.1534 126.556 42.1534H125.919V44.1966H126.464C126.729 44.1966 126.954 44.1813 127.138 44.1506C127.324 44.118 127.481 44.049 127.61 43.9436C127.733 43.8497 127.823 43.7356 127.882 43.6024C127.943 43.4702 127.974 43.2958 127.974 43.0811Z" fill="#008DCB"/>
<path d="M139.868 40.7581L137.258 48.3482H135.272L132.662 40.7581H134.64L136.292 45.9025L137.944 40.7581H139.868Z" fill="#008DCB"/>
<path d="M146.277 48.3484H142.187V47.0221H143.279V42.0808H142.187V40.7583H146.277V42.0808H145.184V47.0221H146.277V48.3484Z" fill="#008DCB"/>
<path d="M152.737 48.4985C151.597 48.4985 150.692 48.1554 150.023 47.4673C149.353 46.7773 149.019 45.8094 149.019 44.5616C149.019 43.3579 149.353 42.3986 150.023 41.6827C150.695 40.9678 151.601 40.6094 152.741 40.6094C153.042 40.6094 153.313 40.6276 153.554 40.663C153.796 40.6966 154.029 40.7426 154.252 40.801C154.425 40.8528 154.613 40.9228 154.815 41.0119C155.019 41.102 155.184 41.1786 155.31 41.2419V43.0512H155.118C155.026 42.9698 154.909 42.873 154.769 42.7599C154.631 42.6449 154.474 42.5328 154.298 42.4226C154.121 42.3152 153.926 42.2232 153.711 42.1466C153.498 42.0699 153.278 42.0316 153.048 42.0316C152.772 42.0316 152.519 42.0756 152.289 42.1619C152.061 42.2491 151.842 42.3996 151.633 42.6142C151.444 42.8059 151.289 43.0685 151.169 43.4001C151.049 43.7298 150.989 44.1188 150.989 44.5654C150.989 45.0389 151.052 45.4356 151.177 45.7576C151.302 46.0777 151.467 46.3355 151.672 46.532C151.868 46.7236 152.088 46.8616 152.331 46.946C152.573 47.0303 152.816 47.0725 153.059 47.0725C153.309 47.0725 153.548 47.0322 153.776 46.9498C154.003 46.8655 154.195 46.7725 154.351 46.67C154.522 46.5655 154.671 46.4591 154.8 46.3518C154.93 46.2425 155.042 46.1448 155.137 46.0605H155.31V47.843C155.172 47.9101 155.011 47.9848 154.827 48.0692C154.643 48.1516 154.453 48.2206 154.259 48.2762C154.021 48.348 153.799 48.4027 153.592 48.441C153.385 48.4793 153.1 48.4985 152.737 48.4985Z" fill="#008DCB"/>
<path d="M158.35 48.3482V40.7581H163.483V42.2032H160.248V43.5334H163.23V44.9825H160.248V46.8992H163.483V48.3482H158.35Z" fill="#008DCB"/>
<path d="M169.041 48.4867C168.459 48.4867 167.947 48.4302 167.508 48.3181C167.068 48.2059 166.659 48.067 166.281 47.9002V46.0947H166.454C166.834 46.4167 167.253 46.6649 167.711 46.8384C168.171 47.0128 168.617 47.099 169.049 47.099C169.158 47.099 169.303 47.0875 169.482 47.0645C169.661 47.0415 169.804 47.0051 169.912 46.9534C170.044 46.8949 170.157 46.8144 170.249 46.7119C170.341 46.6074 170.387 46.4694 170.387 46.2979C170.387 46.1091 170.311 45.9557 170.161 45.8379C170.012 45.7181 169.835 45.6299 169.628 45.5733C169.369 45.5072 169.092 45.443 168.796 45.3817C168.502 45.3203 168.229 45.2456 167.976 45.1555C167.387 44.9485 166.966 44.6706 166.711 44.3198C166.455 43.97 166.327 43.5321 166.327 43.005C166.327 42.2948 166.627 41.7198 167.228 41.2799C167.831 40.841 168.582 40.6206 169.482 40.6206C169.935 40.6206 170.384 40.6666 170.832 40.7586C171.278 40.8487 171.679 40.9723 172.031 41.1304V42.8631H171.867C171.583 42.6207 171.238 42.4166 170.832 42.2498C170.425 42.084 170.008 42.0006 169.582 42.0006C169.413 42.0006 169.262 42.014 169.13 42.039C168.999 42.062 168.861 42.107 168.716 42.1731C168.595 42.2297 168.491 42.3111 168.405 42.4185C168.318 42.5239 168.275 42.6427 168.275 42.775C168.275 42.9695 168.344 43.1238 168.482 43.2388C168.62 43.3519 168.885 43.4535 169.279 43.5455C169.534 43.6049 169.779 43.6605 170.015 43.7142C170.253 43.7678 170.506 43.8426 170.774 43.9365C171.3 44.1282 171.691 44.385 171.947 44.707C172.205 45.0271 172.334 45.4507 172.334 45.9797C172.334 46.7339 172.037 47.3405 171.445 47.8006C170.852 48.2586 170.051 48.4867 169.041 48.4867Z" fill="#008DCB"/>
<path d="M185.281 48.3482H180.213V40.7581H182.118V46.8992H185.281V48.3482Z" fill="#008DCB"/>
<path d="M189.563 48.3482V42.2032H187.321V40.7581H193.715V42.2032H191.472V48.3482H189.563Z" fill="#008DCB"/>
<path d="M203.204 44.561C203.204 45.2664 203.049 45.8989 202.74 46.4586C202.43 47.0182 202.039 47.4476 201.567 47.7466C201.173 48.0025 200.744 48.1673 200.279 48.2411C199.813 48.313 199.321 48.3484 198.799 48.3484H196.423V40.7583H198.776C199.31 40.7583 199.809 40.7928 200.275 40.8618C200.743 40.9289 201.18 41.0918 201.586 41.3525C202.086 41.6726 202.481 42.1029 202.771 42.6443C203.059 43.1868 203.204 43.825 203.204 44.561ZM201.245 44.5457C201.245 44.0454 201.159 43.6171 200.988 43.2615C200.817 42.9069 200.552 42.629 200.195 42.4297C199.936 42.2869 199.666 42.2092 199.382 42.1958C199.098 42.1805 198.759 42.1728 198.366 42.1728H198.328V46.9262H198.366C198.793 46.9262 199.153 46.9186 199.447 46.9032C199.74 46.8879 200.02 46.7978 200.287 46.6311C200.598 46.4346 200.836 46.1624 201 45.8145C201.163 45.4676 201.245 45.044 201.245 44.5457Z" fill="#008DCB"/>
<path d="M208 48.3474H206.194V46.3425H208V48.3474Z" fill="#008DCB"/>
</svg>
