<svg width="10" height="10" viewBox="0 0 10 10" fill="none" xmlns="http://www.w3.org/2000/svg">
<g clip-path="url(#clip0_2001_990)">
<path d="M7.38942 6.00647C7.95676 5.45057 8.5317 4.78424 8.5317 3.91229C8.5317 3.35688 8.31107 2.82422 7.91833 2.43149C7.5256 2.03875 6.99293 1.81812 6.43752 1.81812C5.76739 1.81812 5.29524 2.0085 4.7241 2.57964C4.15296 2.0085 3.68082 1.81812 3.01068 1.81812C2.45527 1.81812 1.92261 2.03875 1.52987 2.43149C1.13714 2.82422 0.916504 3.35688 0.916504 3.91229C0.916504 4.78804 1.48764 5.45437 2.05878 6.00647L4.7241 8.67179L7.38942 6.00647Z" stroke="#868C98" stroke-width="0.913824" stroke-linecap="round" stroke-linejoin="round"/>
</g>
<defs>
<clipPath id="clip0_2001_990">
<rect width="9.13824" height="9.13824" fill="white" transform="translate(0.155273 0.675781)"/>
</clipPath>
</defs>
</svg>
