<svg width="116" height="36" viewBox="0 0 116 36" fill="none" xmlns="http://www.w3.org/2000/svg">
<g clip-path="url(#clip0_2001_228)">
<mask id="mask0_2001_228" style="mask-type:luminance" maskUnits="userSpaceOnUse" x="8" y="5" width="26" height="29">
<path d="M8.25732 5.05493H33.607V33.3572H8.25732V5.05493Z" fill="white"/>
</mask>
<g mask="url(#mask0_2001_228)">
<path fill-rule="evenodd" clip-rule="evenodd" d="M20.0072 5.08488C18.2517 5.23014 16.7232 5.65623 15.2061 6.42394C11.6591 8.21923 9.14507 11.6075 8.46559 15.508C8.36391 16.0901 8.31387 16.5597 8.28751 17.1725C8.1514 20.351 9.18004 23.382 11.2346 25.8552C11.5246 26.2043 12.259 26.9484 12.6345 27.2744C14.3819 28.7883 16.437 29.7648 18.7762 30.193C19.0167 30.2371 22.4136 30.9575 26.3237 31.7946C30.2344 32.6312 33.4452 33.3118 33.4592 33.3075C33.4731 33.3026 32.2406 32.1669 30.7197 30.7837C29.1988 29.4 27.9549 28.2616 27.9555 28.2536C27.956 28.246 28.0814 28.1535 28.2342 28.0481C29.4102 27.2362 30.5378 26.0876 31.4062 24.8169C32.4466 23.2943 33.1552 21.4948 33.4355 19.6634C33.5312 19.0367 33.6259 17.8133 33.6033 17.5023C33.5958 17.4044 33.577 17.1332 33.5608 16.9003C33.3677 14.0608 32.3025 11.4875 30.441 9.36354C30.1424 9.02245 29.5253 8.40914 29.1988 8.12831C26.8671 6.12213 23.9334 5.0413 20.869 5.05905C20.5457 5.06067 20.1578 5.0725 20.0072 5.08488ZM14.3109 15.4843C14.3206 21.2032 14.3114 20.8454 14.4685 21.5087C14.6713 22.362 15.1173 23.1421 15.7436 23.7403C16.8771 24.8228 18.5777 25.4485 20.9922 25.6707C21.6663 25.7325 22.9306 25.7115 23.4589 25.6292C25.1111 25.3721 26.2328 24.769 27.0199 23.7151C27.4853 23.0915 27.7387 22.4174 27.9797 21.1596C28.1734 20.1498 28.4117 19.5262 28.7103 19.2486C28.9271 19.048 29.2709 18.9054 29.6991 18.8403L29.924 18.8059V14.8005L29.6846 14.7402C28.9395 14.553 28.3837 14.4686 27.7629 14.4476C26.6863 14.411 25.8632 14.6359 25.0159 15.1975C24.6877 15.4149 24.2218 15.8582 24.0061 16.1573C23.4993 16.861 23.2502 17.7552 23.2491 18.8704C23.2486 19.5117 23.1846 19.8652 22.9968 20.2622C22.8655 20.5393 22.589 20.8325 22.3324 20.967C21.9569 21.1639 21.4576 21.244 20.9142 21.194C19.6462 21.0778 19.0641 20.4048 19.0635 19.0544V18.7332H21.2521V14.2738H18.9538V10.2254H14.3017L14.3109 15.4843ZM8.26599 17.7207C8.26599 17.8036 8.27083 17.8375 8.27729 17.796C8.28374 17.7546 8.28374 17.6868 8.27729 17.6454C8.27083 17.6045 8.26599 17.6379 8.26599 17.7207Z" fill="#008DCB"/>
</g>
<path d="M43.5617 16.0731H40.2046V14.0955H49.3483V16.0731H45.9891V24.5863H43.5617V16.0731Z" fill="#008DCB"/>
<path d="M52.8094 16.4021C54.0587 16.4021 55.0179 16.7001 55.6866 17.2952C56.3564 17.8891 56.6916 18.7859 56.6916 19.9851V24.5861H54.503V23.5811C54.0624 24.3316 53.2431 24.7066 52.0455 24.7066C51.4257 24.7066 50.8883 24.6017 50.4337 24.3924C49.9785 24.1815 49.6315 23.892 49.3921 23.523C49.1521 23.1528 49.0327 22.7327 49.0327 22.2619C49.0327 21.513 49.3146 20.9245 49.8784 20.4952C50.4433 20.0648 51.316 19.8496 52.4952 19.8496H54.3524C54.3524 19.3406 54.1975 18.949 53.8876 18.6746C53.5777 18.3991 53.1134 18.2614 52.4952 18.2614C52.0648 18.2614 51.642 18.3292 51.2277 18.4637C50.8129 18.5987 50.4605 18.7811 50.1711 19.0103L49.3318 17.3769C49.7708 17.0671 50.297 16.8277 50.9114 16.6582C51.5269 16.4876 52.1595 16.4021 52.8094 16.4021ZM52.6287 23.1313C53.0289 23.1313 53.384 23.0399 53.6939 22.8559C54.0038 22.6708 54.2233 22.3986 54.3524 22.0381V21.2139H52.7492C51.7894 21.2139 51.3095 21.5292 51.3095 22.1586C51.3095 22.4588 51.4268 22.6961 51.6624 22.8709C51.8975 23.0447 52.2198 23.1313 52.6287 23.1313Z" fill="#008DCB"/>
<path d="M57.8738 13.4648H60.213V24.5862H57.8738V13.4648Z" fill="#008DCB"/>
<path d="M64.9182 21.4228L63.7949 22.5333V24.5862H61.4557V13.4648H63.7949V19.7594L67.2122 16.5228H70.0012L66.6419 19.9401L70.3003 24.5862H67.4662L64.9182 21.4228Z" fill="#008DCB"/>
<path d="M74.0316 24.767C73.202 24.767 72.4004 24.654 71.6256 24.4291C70.8509 24.2042 70.229 23.9115 69.7599 23.5511L70.5841 21.7241C71.0344 22.0544 71.5686 22.3191 72.1873 22.5181C72.8071 22.7177 73.4269 22.8173 74.0466 22.8173C74.7363 22.8173 75.2458 22.7156 75.5745 22.5117C75.9043 22.3067 76.0695 22.0339 76.0695 21.6939C76.0695 21.4443 75.9716 21.2372 75.7768 21.072C75.5831 20.9074 75.3335 20.7745 75.0279 20.6739C74.7234 20.5738 74.3119 20.4641 73.7927 20.3446C72.9922 20.1553 72.3369 19.9659 71.8279 19.7765C71.3185 19.5861 70.8816 19.281 70.5174 18.8619C70.1526 18.4418 69.9708 17.8817 69.9708 17.1812C69.9708 16.5717 70.1349 16.0203 70.4636 15.5264C70.7934 15.0314 71.2905 14.6392 71.9549 14.3492C72.6204 14.0598 73.4322 13.9146 74.3909 13.9146C75.0607 13.9146 75.7149 13.9952 76.3535 14.1556C76.9932 14.3148 77.5533 14.5445 78.0342 14.8442L77.2832 16.6863C76.3148 16.137 75.3453 15.8621 74.3759 15.8621C73.6969 15.8621 73.195 15.9729 72.8695 16.1935C72.5451 16.413 72.3831 16.703 72.3831 17.0629C72.3831 17.4217 72.5704 17.6886 72.9448 17.8634C73.3193 18.0388 73.8917 18.211 74.6621 18.3799C75.461 18.5709 76.1152 18.7608 76.6247 18.9502C77.1336 19.1395 77.5705 19.4397 77.9352 19.8497C78.3011 20.2602 78.484 20.8149 78.484 21.5132C78.484 22.113 78.3161 22.6602 77.9804 23.1551C77.6458 23.6501 77.1438 24.0428 76.474 24.3323C75.8053 24.6217 74.9913 24.767 74.0316 24.767Z" fill="#008DCB"/>
<path d="M84.2525 24.1967C84.0227 24.3662 83.7403 24.4937 83.4046 24.5797C83.0699 24.6642 82.7186 24.7067 82.3501 24.7067C81.3903 24.7067 80.6479 24.4625 80.1228 23.9729C79.5988 23.4822 79.3373 22.7624 79.3373 21.8123V18.5004H78.0935V16.7014H79.3373V14.7388H81.6744V16.7014H83.6843V18.5004H81.6744V21.7843C81.6744 22.1233 81.7615 22.3847 81.9369 22.5698C82.1118 22.7549 82.3593 22.8474 82.6794 22.8474C83.0495 22.8474 83.3642 22.7479 83.6241 22.5483L84.2525 24.1967Z" fill="#008DCB"/>
<path d="M92.7674 16.5227V24.5862H90.5487V23.6264C90.2388 23.9766 89.8687 24.244 89.4383 24.4291C89.009 24.6141 88.5452 24.7067 88.046 24.7067C86.9856 24.7067 86.1458 24.4022 85.526 23.7921C84.9073 23.1825 84.5985 22.2782 84.5985 21.0784V16.5227H86.9356V20.7341C86.9356 22.0328 87.48 22.6817 88.5689 22.6817C89.1284 22.6817 89.5782 22.4998 89.9182 22.1351C90.2582 21.7708 90.4282 21.2291 90.4282 20.5103V16.5227H92.7674Z" fill="#008DCB"/>
<path d="M96.5718 16.7013H98.642V18.5004H96.632V24.5862H94.295V18.5004H93.0511V16.7013H94.295V16.3419C94.295 15.4225 94.5667 14.693 95.1106 14.1534C95.6556 13.6143 96.4233 13.3442 97.4132 13.3442C97.7618 13.3442 98.0932 13.3824 98.4074 13.4583C98.7227 13.5331 98.9852 13.6401 99.195 13.7789L98.5817 15.4725C98.3116 15.2832 97.9969 15.1885 97.637 15.1885C96.9269 15.1885 96.5718 15.578 96.5718 16.357V16.7013Z" fill="#008DCB"/>
<path d="M101.443 16.7013H103.513V18.5004H101.503V24.5862H99.1661V18.5004H97.9222V16.7013H99.1661V16.3419C99.1661 15.4225 99.4378 14.693 99.9817 14.1534C100.527 13.6143 101.294 13.3442 102.284 13.3442C102.633 13.3442 102.964 13.3824 103.279 13.4583C103.594 13.5331 103.856 13.6401 104.066 13.7789L103.453 15.4725C103.183 15.2832 102.868 15.1885 102.508 15.1885C101.798 15.1885 101.443 15.578 101.443 16.357V16.7013Z" fill="#008DCB"/>
</g>
<defs>
<clipPath id="clip0_2001_228">
<rect width="116" height="35.3268" fill="white" transform="translate(0 0.336426)"/>
</clipPath>
</defs>
</svg>
