<svg width="19" height="19" viewBox="0 0 19 19" fill="none" xmlns="http://www.w3.org/2000/svg">
<path d="M1.59586 10.6681C1.64761 13.095 1.67349 14.3084 2.56897 15.2074C3.46444 16.1062 4.71072 16.1375 7.20328 16.2001C8.73949 16.2387 10.2606 16.2387 11.7968 16.2001C14.2894 16.1375 15.5356 16.1062 16.4312 15.2074C17.3266 14.3084 17.3525 13.095 17.4042 10.6681C17.4209 9.88776 17.4209 9.11208 17.4042 8.33174C17.3525 5.90485 17.3266 4.69141 16.4312 3.79253C15.5356 2.89364 14.2894 2.86233 11.7968 2.7997C10.2606 2.7611 8.73949 2.7611 7.20327 2.7997C4.71072 2.86232 3.46444 2.89363 2.56896 3.79252C1.67348 4.6914 1.64761 5.90484 1.59585 8.33174C1.57921 9.11208 1.57922 9.88776 1.59586 10.6681Z" fill="#A4A4A4" stroke="#A4A4A4" stroke-width="1.25" stroke-linejoin="round"/>
<path d="M1.58337 4.75L7.05618 7.85093C9.07381 8.99413 9.92627 8.99413 11.9439 7.85093L17.4167 4.75" stroke="#07090E" stroke-width="1.25" stroke-linejoin="round"/>
</svg>
