<svg width="10" height="10" viewBox="0 0 10 10" fill="none" xmlns="http://www.w3.org/2000/svg">
<g clip-path="url(#clip0_7_437)">
<path d="M7.67566 4.13299C7.67566 6.41755 4.62958 8.70211 4.62958 8.70211C4.62958 8.70211 1.5835 6.41755 1.5835 4.13299C1.5835 3.32512 1.90442 2.55034 2.47567 1.97909C3.04692 1.40784 3.82171 1.08691 4.62958 1.08691C5.43745 1.08691 6.21223 1.40784 6.78348 1.97909C7.35473 2.55034 7.67566 3.32512 7.67566 4.13299Z" stroke="#868C98" stroke-width="0.913824" stroke-linecap="round" stroke-linejoin="round"/>
<path d="M4.62958 5.27528C5.26045 5.27528 5.77186 4.76387 5.77186 4.133C5.77186 3.50214 5.26045 2.99072 4.62958 2.99072C3.99872 2.99072 3.4873 3.50214 3.4873 4.133C3.4873 4.76387 3.99872 5.27528 4.62958 5.27528Z" stroke="#868C98" stroke-width="0.913824" stroke-linecap="round" stroke-linejoin="round"/>
</g>
<defs>
<clipPath id="clip0_7_437">
<rect width="9.13824" height="9.13824" fill="white" transform="translate(0.0605469 0.325439)"/>
</clipPath>
</defs>
</svg>
