<svg width="18" height="18" viewBox="0 0 18 18" fill="none" xmlns="http://www.w3.org/2000/svg">
<path d="M6.63212 3.76019L6.29658 3.00521C6.07718 2.51157 5.96748 2.26473 5.80342 2.07584C5.59781 1.83912 5.3298 1.66495 5.02998 1.57321C4.79073 1.5 4.52063 1.5 3.98042 1.5C3.19017 1.5 2.79504 1.5 2.46335 1.65191C2.07263 1.83085 1.71978 2.2194 1.57918 2.6255C1.45983 2.97024 1.49403 3.32452 1.56239 4.03308C2.29017 11.5752 6.42509 15.7101 13.9671 16.4378C14.6757 16.5062 15.03 16.5404 15.3747 16.4211C15.7809 16.2805 16.1694 15.9276 16.3484 15.5369C16.5002 15.2052 16.5002 14.8101 16.5002 14.0198C16.5002 13.4796 16.5002 13.2095 16.427 12.9702C16.3353 12.6704 16.1611 12.4024 15.9244 12.1968C15.7355 12.0327 15.4887 11.9231 14.995 11.7037L14.24 11.3681C13.7055 11.1305 13.4381 11.0117 13.1665 10.9859C12.9065 10.9612 12.6445 10.9977 12.4011 11.0924C12.1469 11.1914 11.9222 11.3787 11.4727 11.7532C11.0254 12.126 10.8017 12.3124 10.5284 12.4122C10.286 12.5007 9.96571 12.5336 9.71054 12.4959C9.42262 12.4535 9.20221 12.3357 8.76129 12.1001C7.38962 11.3671 6.63318 10.6107 5.90013 9.23892C5.66453 8.79808 5.54673 8.57758 5.5043 8.28975C5.46669 8.0345 5.49948 7.71417 5.58799 7.47192C5.68784 7.19857 5.87425 6.97488 6.24707 6.5275C6.62159 6.07807 6.80886 5.85335 6.90787 5.59909C7.00262 5.35578 7.03909 5.09367 7.01437 4.83373C6.98853 4.5621 6.86972 4.2948 6.63212 3.76019Z" fill="#A4A4A4" stroke="#A4A4A4" stroke-width="1.5" stroke-linecap="round"/>
</svg>
