<svg width="58" height="65" viewBox="0 0 58 65" fill="none" xmlns="http://www.w3.org/2000/svg">
<mask id="mask0_487_1919" style="mask-type:luminance" maskUnits="userSpaceOnUse" x="0" y="0" width="58" height="65">
<path d="M0 0H58V64.7553H0V0Z" fill="white"/>
</mask>
<g mask="url(#mask0_487_1919)">
<path fill-rule="evenodd" clip-rule="evenodd" d="M26.8834 0.0686102C22.8669 0.40096 19.3698 1.37585 15.8986 3.13238C7.7831 7.23998 2.03099 14.9924 0.476327 23.9166C0.243682 25.2484 0.129206 26.323 0.0688904 27.7251C-0.242534 34.9974 2.111 41.9324 6.8119 47.591C7.47537 48.3898 9.15559 50.0922 10.0148 50.8381C14.0128 54.302 18.715 56.5361 24.067 57.5159C24.6172 57.6169 32.3893 59.2651 41.3357 61.1804C50.2833 63.0945 57.6294 64.6516 57.6615 64.6417C57.6935 64.6307 54.8734 62.0322 51.3936 58.8675C47.9137 55.7015 45.0678 53.0969 45.0691 53.0784C45.0703 53.0612 45.3571 52.8495 45.7067 52.6082C48.3975 50.7508 50.9775 48.1227 52.9642 45.2153C55.3448 41.7318 56.966 37.6143 57.6073 33.4242C57.8264 31.9902 58.043 29.1911 57.9913 28.4796C57.9741 28.2556 57.931 27.6352 57.8941 27.1022C57.4522 20.6054 55.015 14.7179 50.756 9.85816C50.0728 9.07776 48.6609 7.6745 47.9137 7.03196C42.5789 2.44183 35.8667 -0.0310947 28.8553 0.00952575C28.1155 0.0132186 27.228 0.0402991 26.8834 0.0686102ZM13.8503 23.8624C13.8725 36.9472 13.8516 36.1286 14.211 37.6463C14.6751 39.5986 15.6955 41.3834 17.1283 42.7522C19.7219 45.2288 23.6128 46.6604 29.1372 47.1688C30.6796 47.3103 33.5722 47.2623 34.781 47.074C38.5612 46.4856 41.1277 45.1057 42.9285 42.6943C43.9933 41.2677 44.573 39.7253 45.1245 36.8474C45.5676 34.537 46.1129 33.1104 46.7961 32.4752C47.2921 32.0161 48.0787 31.6899 49.0585 31.5409L49.573 31.4621V22.2979L49.0253 22.16C47.3204 21.7317 46.0489 21.5384 44.6284 21.4904C42.1653 21.4067 40.282 21.9212 38.3433 23.2063C37.5924 23.7036 36.5265 24.7179 36.0329 25.4023C34.8733 27.0123 34.3034 29.0581 34.3009 31.6099C34.2997 33.0771 34.1532 33.8858 33.7236 34.7943C33.4233 35.4282 32.7906 36.099 32.2034 36.4068C31.3443 36.8573 30.202 37.0407 28.9587 36.9262C26.0574 36.6603 24.7256 35.1205 24.7243 32.0308V31.296H29.7317V21.0928H24.4732V11.8301H13.8294L13.8503 23.8624ZM0.0196533 28.9794C0.0196533 29.1689 0.0307317 29.2465 0.0455028 29.1517C0.0602739 29.0569 0.0602739 28.9018 0.0455028 28.807C0.0307317 28.7135 0.0196533 28.7898 0.0196533 28.9794Z" fill="white"/>
</g>
</svg>
