<svg width="936" height="243" viewBox="0 0 936 243" fill="none" xmlns="http://www.w3.org/2000/svg">
<g opacity="0.5" filter="url(#filter0_di_13_1386)">
<path d="M780.622 460.546H771.854L776.203 461.31L773.147 461.838H779.21L867.474 477.344C873.246 484.231 879.448 492.107 885.54 500.475C850.88 542.859 826.925 592.453 884.272 600.099C949.995 608.862 919.456 547.054 885.54 500.475C897.266 486.137 910.216 472.624 921.659 461.838H923.031C922.8 461.627 922.569 461.414 922.337 461.2C922.571 460.981 922.804 460.763 923.036 460.546H921.631C910.295 450.029 897.469 436.857 885.857 422.883C919.481 377.439 949.757 317.138 884.599 325.687C827.745 333.147 851.494 381.531 885.857 422.883C879.816 431.046 873.668 438.73 867.945 445.45L780.622 460.546Z" fill="#292828"/>
<path d="M715.991 460.911H708.582L712.257 461.556L709.673 462.003H714.799L789.417 475.111C794.296 480.934 799.539 487.592 804.69 494.666C775.388 530.496 755.138 572.421 803.617 578.885C859.177 586.293 833.361 534.042 804.69 494.666C814.602 482.544 825.55 471.121 835.223 462.003H836.381C836.186 461.824 835.992 461.645 835.796 461.464C835.994 461.279 836.191 461.094 836.388 460.911H835.198C825.615 452.02 814.772 440.885 804.955 429.071C833.38 390.654 858.975 339.677 803.892 346.904C755.829 353.21 775.905 394.113 804.955 429.071C799.848 435.972 794.651 442.468 789.813 448.148L715.991 460.911Z" fill="#292828"/>
<path d="M647.433 461.297H640.865L644.123 461.817L641.832 462.177H646.378L712.541 472.748C716.868 477.443 721.517 482.813 726.084 488.517C700.102 517.411 682.146 551.22 725.133 556.433C774.398 562.406 751.507 520.271 726.084 488.517C734.873 478.742 744.581 469.53 753.158 462.177H754.184C754.012 462.034 753.839 461.889 753.666 461.743C753.841 461.594 754.016 461.445 754.191 461.297H753.135C744.637 454.127 735.023 445.147 726.318 435.621C751.523 404.641 774.218 363.532 725.376 369.361C682.758 374.446 700.56 407.431 726.318 435.621C721.79 441.186 717.182 446.424 712.892 451.005L647.433 461.297Z" fill="#292828"/>
<path d="M587.024 461.65H582.361L584.674 462.056L583.049 462.337H586.273L633.225 470.585C636.296 474.249 639.595 478.438 642.836 482.889C624.398 505.435 611.656 531.816 642.161 535.883C677.121 540.545 660.877 507.667 642.836 482.889C649.073 475.262 655.962 468.074 662.049 462.337H662.778C662.656 462.224 662.533 462.111 662.41 461.997C662.534 461.881 662.658 461.765 662.781 461.65H662.034C656.004 456.055 649.181 449.048 643.004 441.615C660.89 417.441 676.995 385.365 642.335 389.912C612.092 393.881 624.725 419.618 643.004 441.615C639.791 445.957 636.52 450.045 633.476 453.619L587.024 461.65Z" fill="#292828"/>
<path d="M540.332 461.826H536.324L538.312 462.175L536.914 462.417H539.687L580.027 469.504C582.665 472.651 585.5 476.251 588.284 480.076C572.443 499.448 561.494 522.114 587.705 525.609C617.743 529.614 603.785 501.365 588.284 480.076C593.643 473.522 599.562 467.346 604.792 462.417H605.419C605.314 462.32 605.208 462.223 605.102 462.125C605.209 462.025 605.316 461.925 605.422 461.826H604.779C599.598 457.019 593.736 450.999 588.428 444.612C603.796 423.842 617.634 396.281 587.854 400.189C561.868 403.598 572.723 425.712 588.428 444.612C585.668 448.343 582.858 451.855 580.242 454.926L540.332 461.826Z" fill="#292828"/>
<path d="M495.3 462.198H492.681L493.98 462.427L493.066 462.585H494.879L521.28 467.222C523.006 469.282 524.861 471.638 526.683 474.141C516.316 486.818 509.152 501.65 526.304 503.937C545.961 506.558 536.827 488.072 526.683 474.141C530.19 469.852 534.064 465.81 537.486 462.585H537.895C537.826 462.521 537.757 462.458 537.688 462.394C537.758 462.329 537.828 462.263 537.898 462.198H537.476C534.086 459.053 530.25 455.113 526.776 450.933C536.833 437.341 545.889 419.306 526.4 421.863C509.396 424.094 516.499 438.565 526.776 450.933C524.97 453.375 523.131 455.673 521.419 457.683L495.3 462.198Z" fill="#292828"/>
<path d="M465.549 765.268V756.516L466.311 760.857L466.838 757.808V763.858L482.347 852.136C489.234 857.908 497.11 864.109 505.478 870.202C547.862 835.542 597.455 811.587 605.101 868.934C613.864 934.656 552.056 904.118 505.478 870.202C491.138 881.928 477.624 894.88 466.838 906.323V907.691C466.627 907.462 466.415 907.231 466.202 907C465.983 907.234 465.765 907.466 465.549 907.698V906.294C455.031 894.958 441.858 882.131 427.883 870.517C382.439 904.141 322.138 934.418 330.687 869.26C338.147 812.406 386.531 836.154 427.883 870.517C436.046 864.477 443.73 858.329 450.45 852.606L465.549 765.268Z" fill="#292828"/>
<path d="M465.908 700.671V693.246L466.555 696.929L467.003 694.338V699.478L480.109 774.081C485.931 778.96 492.589 784.203 499.663 789.354C535.494 760.053 577.419 739.802 583.883 788.281C591.291 843.842 539.04 818.025 499.663 789.354C487.543 799.265 476.12 810.212 467.003 819.885V821.046C466.824 820.851 466.644 820.656 466.462 820.46C466.277 820.658 466.092 820.855 465.908 821.052V819.86C457.017 810.278 445.883 799.437 434.071 789.62C395.654 818.045 344.677 843.64 351.904 788.557C358.21 740.494 399.113 760.571 434.071 789.62C440.972 784.514 447.468 779.316 453.148 774.478L465.908 700.671Z" fill="#292828"/>
<path d="M466.297 632.111V625.529L466.819 628.794L467.18 626.497V631.053L477.749 697.205C482.444 701.532 487.814 706.18 493.518 710.747C522.412 684.766 556.221 666.81 561.433 709.797C567.407 759.062 525.272 736.17 493.518 710.747C483.744 719.536 474.532 729.243 467.18 737.82V738.849C467.036 738.677 466.89 738.503 466.744 738.329C466.595 738.505 466.446 738.68 466.297 738.854V737.798C459.128 729.301 450.149 719.688 440.623 710.984C409.644 736.188 368.535 758.883 374.363 710.041C379.449 667.424 412.433 685.226 440.623 710.984C446.189 706.456 451.427 701.847 456.008 697.558L466.297 632.111Z" fill="#292828"/>
<path d="M466.648 571.7V567.023L467.056 569.343L467.338 567.711V570.949L475.584 617.887C479.248 620.958 483.437 624.257 487.888 627.498C510.434 609.06 536.815 596.318 540.882 626.823C545.544 661.784 512.665 645.539 487.888 627.498C480.262 633.734 473.075 640.622 467.338 646.708V647.44C467.225 647.317 467.112 647.194 466.998 647.07C466.881 647.195 466.764 647.319 466.648 647.443V646.693C461.054 640.663 454.049 633.842 446.616 627.665C422.443 645.551 390.366 661.657 394.914 626.996C398.882 596.753 424.619 609.386 446.616 627.665C450.958 624.452 455.046 621.182 458.62 618.138L466.648 571.7Z" fill="#292828"/>
<path d="M466.828 524.99V520.986L467.176 522.972L467.418 521.577V524.345L474.505 564.689C477.653 567.328 481.253 570.162 485.077 572.947C504.449 557.105 527.116 546.156 530.61 572.367C534.616 602.406 506.366 588.448 485.077 572.947C478.524 578.306 472.347 584.225 467.418 589.455V590.081C467.321 589.976 467.224 589.871 467.126 589.765C467.026 589.872 466.927 589.978 466.828 590.084V589.442C462.021 584.261 456 578.399 449.613 573.091C428.843 588.459 401.282 602.297 405.19 572.516C408.599 546.531 430.713 557.385 449.613 573.091C453.344 570.33 456.856 567.52 459.927 564.905L466.828 524.99Z" fill="#292828"/>
<path d="M467.197 479.964V477.344L467.425 478.643L467.583 477.731V479.541L472.221 505.943C474.281 507.669 476.636 509.524 479.139 511.347C491.816 500.98 506.649 493.815 508.936 510.967C511.557 530.624 493.07 521.49 479.139 511.347C474.85 514.854 470.808 518.727 467.582 522.15V522.56C467.519 522.491 467.456 522.422 467.392 522.353C467.326 522.422 467.261 522.492 467.196 522.561V522.141C464.051 518.751 460.111 514.915 455.931 511.441C442.339 521.498 424.304 530.553 426.861 511.065C429.092 494.06 443.563 501.164 455.931 511.441C458.373 509.635 460.671 507.796 462.681 506.084L467.197 479.964Z" fill="#292828"/>
<path d="M154.424 454.158H163.189L158.842 453.395L161.897 452.866H155.835L67.5692 437.36C61.797 430.473 55.5953 422.597 49.5026 414.229C84.1632 371.845 108.118 322.252 50.7712 314.606C-14.9514 305.843 15.5872 367.651 49.5026 414.229C37.7772 428.568 24.8266 442.081 13.3839 452.866H12.0135C12.2436 453.078 12.4744 453.29 12.7059 453.504C12.4721 453.723 12.239 453.941 12.0065 454.158H13.413C24.7491 464.676 37.5744 477.847 49.1875 491.822C15.5635 537.265 -14.7128 597.567 50.4452 589.017C107.299 581.557 83.5504 533.173 49.1875 491.822C55.2279 483.658 61.3763 475.974 67.0989 469.255L154.424 454.158Z" fill="#292828"/>
<path d="M219.05 453.794H226.46L222.785 453.148L225.369 452.702H220.241L145.625 439.593C140.746 433.771 135.503 427.113 130.352 420.039C159.654 384.208 179.904 342.284 131.425 335.82C75.8645 328.412 101.681 380.663 130.352 420.039C120.44 432.16 109.492 443.584 99.8189 452.702H98.6612C98.8556 452.88 99.0506 453.06 99.2461 453.24C99.0482 453.426 98.8509 453.61 98.6542 453.794H99.8446C109.428 462.685 120.27 473.82 130.087 485.634C101.662 524.051 76.0673 575.028 131.15 567.8C179.213 561.494 159.137 520.591 130.087 485.634C135.194 478.732 140.391 472.236 145.229 466.556L219.05 453.794Z" fill="#292828"/>
<path d="M287.611 453.408H294.179L290.921 452.888L293.212 452.528H288.666L222.503 441.957C218.176 437.262 213.527 431.892 208.96 426.188C234.942 397.294 252.898 363.485 209.911 358.272C160.646 352.298 183.537 394.434 208.96 426.188C200.171 435.963 190.463 445.175 181.886 452.528H180.86C181.033 452.671 181.205 452.816 181.378 452.961C181.203 453.111 181.028 453.26 180.853 453.408H181.909C190.407 460.578 200.021 469.557 208.726 479.084C183.521 510.064 160.826 551.173 209.669 545.344C252.286 540.259 234.484 507.274 208.726 479.084C213.254 473.519 217.862 468.281 222.152 463.7L287.611 453.408Z" fill="#292828"/>
<path d="M348.019 453.055H352.682L350.369 452.649L351.994 452.368H348.77L301.818 444.12C298.747 440.456 295.448 436.266 292.207 431.815C310.645 409.269 323.387 382.889 292.882 378.821C257.922 374.16 274.166 407.038 292.207 431.815C285.97 439.442 279.081 446.631 272.994 452.368H272.265C272.387 452.48 272.51 452.594 272.633 452.707C272.509 452.824 272.385 452.94 272.262 453.055H273.009C279.039 458.65 285.862 465.656 292.039 473.09C274.153 497.263 258.048 529.34 292.708 524.792C322.951 520.824 310.318 495.087 292.039 473.09C295.252 468.747 298.523 464.66 301.567 461.086L348.019 453.055Z" fill="#292828"/>
<path d="M394.713 452.879H398.719L396.732 452.53L398.129 452.289H395.358L355.016 445.202C352.378 442.054 349.544 438.454 346.759 434.629C362.601 415.258 373.549 392.591 347.339 389.096C317.3 385.091 331.258 413.34 346.759 434.629C341.4 441.183 335.481 447.359 330.251 452.289H329.624C329.729 452.385 329.835 452.482 329.941 452.58C329.834 452.68 329.727 452.78 329.621 452.879H330.264C335.445 457.686 341.307 463.706 346.615 470.093C331.247 490.863 317.409 518.424 347.189 514.517C373.175 511.107 362.32 488.993 346.615 470.093C349.375 466.362 352.186 462.85 354.801 459.779L394.713 452.879Z" fill="#292828"/>
<path d="M439.742 452.507H442.361L441.062 452.278L441.976 452.12H440.163L413.762 447.482C412.036 445.423 410.181 443.067 408.359 440.564C418.726 427.887 425.89 413.054 408.738 410.768C389.081 408.147 398.215 426.633 408.359 440.564C404.852 444.853 400.978 448.895 397.556 452.12H397.147C397.216 452.184 397.285 452.247 397.354 452.311C397.284 452.376 397.214 452.442 397.144 452.507H397.565C400.956 455.652 404.792 459.592 408.266 463.772C398.209 477.364 389.153 495.399 408.642 492.842C425.646 490.611 418.543 476.14 408.266 463.772C410.072 461.33 411.911 459.032 413.623 457.022L439.742 452.507Z" fill="#292828"/>
<path d="M469.495 149.436V158.189L468.732 153.848L468.205 156.897V150.847L452.697 62.5692C445.809 56.797 437.933 50.5953 429.566 44.5026C387.181 79.1632 337.588 103.118 329.942 45.7712C321.179 -19.9514 382.987 10.5872 429.566 44.5026C443.905 32.7764 457.419 19.8249 468.205 8.38158V7.01338C468.416 7.24314 468.628 7.47357 468.841 7.70465C469.06 7.47128 469.278 7.23856 469.495 7.00652V8.41052C480.012 19.7472 493.185 32.5735 507.16 44.1874C552.604 10.5633 612.905 -19.713 604.356 45.445C596.896 102.299 548.512 78.5502 507.16 44.1874C498.997 50.2278 491.313 56.3762 484.593 62.0987L469.495 149.436Z" fill="#292828"/>
<path d="M469.129 214.052V221.459L468.484 217.785L468.037 220.366V215.244L454.928 140.624C449.106 135.745 442.448 130.502 435.374 125.351C399.543 154.652 357.618 174.903 351.155 126.424C343.747 70.8633 395.997 96.68 435.374 125.351C447.495 115.439 458.92 104.49 468.037 94.8169V93.6585C468.216 93.8531 468.396 94.0481 468.576 94.2438C468.761 94.0463 468.946 93.8493 469.129 93.6529V94.8412C478.02 104.425 489.155 115.267 500.97 125.085C539.386 96.6596 590.363 71.0647 583.136 126.148C576.83 174.211 535.927 154.134 500.97 125.085C494.068 130.191 487.572 135.389 481.892 140.226L469.129 214.052Z" fill="#292828"/>
<path d="M468.747 282.594V289.176L468.225 285.911L467.864 288.208V283.652L457.295 217.5C452.6 213.173 447.231 208.525 441.526 203.957C412.632 229.939 378.823 247.895 373.611 204.908C367.637 155.643 409.772 178.535 441.526 203.957C451.3 195.169 460.512 185.462 467.864 176.885V175.855C468.008 176.028 468.154 176.202 468.3 176.376C468.449 176.2 468.598 176.025 468.747 175.85V176.907C475.916 185.404 484.895 195.017 494.421 203.721C525.401 178.516 566.509 155.821 560.681 204.664C555.595 247.281 522.611 229.479 494.421 203.721C488.856 208.249 483.617 212.858 479.036 217.147L468.747 282.594Z" fill="#292828"/>
<path d="M468.393 343.006V347.682L467.985 345.363L467.703 346.995V343.756L459.457 296.818C455.793 293.747 451.604 290.448 447.153 287.207C424.607 305.645 398.226 318.387 394.159 287.882C389.497 252.922 422.376 269.166 447.153 287.207C454.779 280.971 461.966 274.083 467.703 267.997V267.266C467.816 267.388 467.929 267.512 468.043 267.635C468.16 267.51 468.277 267.386 468.393 267.262V268.013C473.987 274.042 480.992 280.863 488.425 287.04C512.598 269.154 544.675 253.049 540.127 287.709C536.159 317.952 510.422 305.319 488.425 287.04C484.083 290.253 479.995 293.524 476.421 296.568L468.393 343.006Z" fill="#292828"/>
<path d="M468.216 389.715V393.719L467.867 391.733L467.626 393.128V390.36L460.538 350.015C457.39 347.377 453.79 344.543 449.966 341.758C430.594 357.6 407.928 368.548 404.433 342.338C400.428 312.299 428.677 326.257 449.966 341.758C456.52 336.399 462.696 330.48 467.626 325.25V324.623C467.722 324.729 467.819 324.834 467.917 324.94C468.017 324.833 468.117 324.727 468.216 324.62V325.263C473.023 330.444 479.043 336.306 485.43 341.614C506.2 326.246 533.761 312.408 529.854 342.189C526.444 368.174 504.33 357.32 485.43 341.614C481.699 344.375 478.187 347.185 475.116 349.8L468.216 389.715Z" fill="#292828"/>
<path d="M467.845 434.741V437.361L467.616 436.062L467.458 436.974V435.163L462.82 408.762C460.76 407.035 458.405 405.18 455.902 403.358C443.225 413.725 428.392 420.89 426.105 403.738C423.484 384.081 441.971 393.214 455.902 403.358C460.191 399.851 464.233 395.978 467.458 392.555V392.145C467.522 392.214 467.585 392.283 467.649 392.352C467.715 392.282 467.78 392.213 467.845 392.143V392.563C470.99 395.954 474.93 399.79 479.11 403.264C492.702 393.207 510.737 384.152 508.18 403.64C505.949 420.644 491.478 413.541 479.11 403.264C476.668 405.07 474.37 406.909 472.36 408.621L467.845 434.741Z" fill="#292828"/>
<path d="M691.169 238.22L684.975 244.415L688.587 241.882L686.801 244.415L691.085 240.131L764.466 188.68C773.417 189.468 783.372 190.652 793.597 192.261C799.058 246.74 817.188 298.746 863.145 263.603C915.814 223.326 850.515 201.215 793.597 192.261C791.749 173.831 791.351 155.118 791.816 139.4L792.784 138.432C792.472 138.445 792.159 138.458 791.845 138.47C791.855 138.15 791.866 137.831 791.877 137.513L790.882 138.508C775.429 139.087 757.046 138.842 738.953 137.172C730.595 81.2626 709.364 17.2146 669.336 69.3336C634.409 114.81 685.415 132.23 738.953 137.172C740.454 147.215 741.54 156.997 742.245 165.794L691.169 238.22Z" fill="#292828"/>
<path d="M645.735 284.173L640.496 289.412L643.551 287.27L642.04 289.412L645.664 285.788L707.696 242.295C715.263 242.961 723.678 243.962 732.322 245.322C736.94 291.377 752.265 335.342 791.116 305.632C835.642 271.584 780.44 252.892 732.322 245.322C730.76 229.742 730.424 213.922 730.817 200.635L731.636 199.816C731.372 199.827 731.107 199.838 730.841 199.849C730.85 199.578 730.859 199.308 730.868 199.039L730.027 199.88C716.964 200.37 701.424 200.163 686.128 198.751C679.063 151.487 661.115 97.3419 627.276 141.402C597.749 179.847 640.868 194.573 686.128 198.751C687.397 207.242 688.315 215.51 688.911 222.948L645.735 284.173Z" fill="#292828"/>
<path d="M597.531 332.922L592.884 337.568L595.557 335.632L594.192 337.506L597.406 334.292L651.664 294.983C658.044 295.243 665.128 295.753 672.391 296.557C674.45 335.36 685.66 371.963 719.742 345.253C758.802 314.641 712.82 301.034 672.391 296.557C671.694 283.43 672.044 270.052 672.91 258.788L673.637 258.061C673.413 258.081 673.188 258.101 672.962 258.121C672.98 257.891 672.999 257.663 673.017 257.435L672.272 258.18C661.193 259.119 648.046 259.568 635.154 258.987C631.071 219.258 618.05 174.142 587.635 212.8C561.096 246.532 597.007 257.267 635.154 258.987C635.888 266.124 636.333 273.087 636.539 279.359L597.531 332.922Z" fill="#292828"/>
<path d="M555.052 375.9L551.764 379.187L553.681 377.843L552.733 379.187L555.007 376.913L594.049 349.539C598.81 349.959 604.106 350.589 609.545 351.444C612.45 380.424 622.093 408.088 646.54 389.394C674.557 367.969 639.822 356.207 609.545 351.444C608.562 341.64 608.35 331.684 608.597 323.323L609.11 322.81C608.945 322.817 608.779 322.824 608.613 322.831C608.618 322.66 608.624 322.491 608.629 322.322L608.1 322.851C599.88 323.159 590.1 323.029 580.475 322.14C576.029 292.4 564.735 258.33 543.443 286.054C524.864 310.245 551.996 319.512 580.475 322.14C581.273 327.483 581.851 332.686 582.226 337.366L555.052 375.9Z" fill="#292828"/>
<path d="M522.171 409.029L519.335 411.865L520.989 410.706L520.171 411.865L522.133 409.904L555.667 386.391C559.758 386.752 564.308 387.293 568.981 388.028C571.478 412.928 579.763 436.697 600.768 420.635C624.841 402.226 594.996 392.121 568.981 388.028C568.137 379.605 567.955 371.053 568.167 363.869L568.611 363.425C568.468 363.431 568.325 363.437 568.18 363.443C568.185 363.296 568.19 363.151 568.195 363.005L567.74 363.46C560.678 363.724 552.276 363.613 544.007 362.849C540.187 337.296 530.484 308.023 512.189 331.844C496.225 352.629 519.538 360.591 544.007 362.849C544.693 367.44 545.19 371.91 545.512 375.931L522.171 409.029Z" fill="#292828"/>
<path d="M490.587 441.138L488.737 442.988L489.816 442.232L489.282 442.988L490.562 441.709L512.513 426.318C515.19 426.554 518.167 426.908 521.225 427.389C522.859 443.683 528.281 459.238 542.027 448.727C557.78 436.68 538.249 430.067 521.225 427.389C520.673 421.876 520.554 416.279 520.693 411.578L520.981 411.289C520.888 411.293 520.795 411.297 520.701 411.301C520.704 411.205 520.708 411.109 520.711 411.014L520.413 411.312C515.791 411.485 510.293 411.412 504.881 410.912C502.381 394.19 496.031 375.034 484.059 390.623C473.612 404.224 488.868 409.434 504.881 410.912C505.33 413.916 505.655 416.842 505.865 419.473L490.587 441.138Z" fill="#292828"/>
<path d="M683.86 676.485L677.665 670.29L681.278 672.823L679.491 670.29L683.776 674.575L757.156 726.025C766.108 725.237 776.062 724.053 786.287 722.444C791.749 667.965 809.878 615.959 855.835 651.102C908.504 691.379 843.205 713.49 786.287 722.444C784.439 740.874 784.042 759.587 784.506 775.305L785.475 776.273C785.163 776.26 784.849 776.247 784.535 776.234C784.545 776.555 784.556 776.874 784.567 777.192L783.572 776.197C768.119 775.618 749.736 775.863 731.643 777.533C723.285 833.442 702.054 897.49 662.026 845.371C627.099 799.894 678.105 782.475 731.643 777.533C733.144 767.489 734.23 757.708 734.935 748.91L683.86 676.485Z" fill="#292828"/>
<path d="M638.424 630.531L633.186 625.293L636.24 627.435L634.73 625.293L638.353 628.916L700.386 672.41C707.953 671.743 716.368 670.742 725.012 669.383C729.63 623.327 744.955 579.363 783.806 609.072C828.332 643.121 773.129 661.813 725.012 669.383C723.45 684.963 723.114 700.782 723.507 714.07L724.326 714.889C724.062 714.878 723.797 714.867 723.531 714.856C723.54 715.127 723.549 715.396 723.558 715.665L722.718 714.825C709.654 714.335 694.114 714.542 678.818 715.954C671.753 763.218 653.805 817.363 619.966 773.303C590.439 734.858 633.558 720.131 678.818 715.954C680.087 707.463 681.005 699.195 681.601 691.757L638.424 630.531Z" fill="#292828"/>
<path d="M590.219 581.783L585.574 577.137L588.246 579.073L586.881 577.199L590.094 580.412L644.354 619.722C650.733 619.462 657.817 618.952 665.08 618.148C667.14 579.345 678.349 542.742 712.431 569.452C751.491 600.064 705.51 613.671 665.08 618.148C664.383 631.275 664.733 644.653 665.6 655.917L666.326 656.644C666.102 656.624 665.877 656.604 665.652 656.584C665.67 656.814 665.688 657.043 665.707 657.27L664.962 656.525C653.883 655.586 640.736 655.138 627.844 655.719C623.76 695.447 610.74 740.563 580.324 701.905C553.785 668.174 589.696 657.438 627.844 655.719C628.577 648.582 629.023 641.619 629.228 635.346L590.219 581.783Z" fill="#292828"/>
<path d="M547.742 538.805L544.455 535.518L546.372 536.861L545.424 535.518L547.697 537.791L586.74 565.165C591.502 564.746 596.797 564.116 602.236 563.261C605.141 534.281 614.785 506.617 639.231 525.311C667.248 546.736 632.513 558.497 602.236 563.261C601.253 573.065 601.041 583.021 601.289 591.382L601.801 591.895C601.636 591.888 601.47 591.881 601.304 591.874C601.309 592.045 601.315 592.214 601.321 592.383L600.792 591.854C592.571 591.546 582.792 591.676 573.166 592.565C568.72 622.305 557.427 656.375 536.134 628.651C517.555 604.46 544.687 595.193 573.166 592.565C573.965 587.222 574.542 582.019 574.917 577.339L547.742 538.805Z" fill="#292828"/>
<path d="M514.867 505.682L512.025 502.84L513.682 504.002L512.862 502.84L514.828 504.805L548.356 528.313C552.447 527.953 556.997 527.412 561.67 526.677C564.167 501.777 572.453 478.007 593.457 494.07C617.53 512.478 587.685 522.584 561.67 526.677C560.826 535.099 560.644 543.651 560.857 550.834L561.302 551.28C561.159 551.273 561.015 551.268 560.87 551.262C560.874 551.408 560.879 551.554 560.884 551.699L560.43 551.245C553.368 550.98 544.967 551.092 536.698 551.855C532.879 577.409 523.175 606.682 504.88 582.861C488.917 562.076 512.229 554.114 536.698 551.855C537.385 547.265 537.881 542.794 538.203 538.773L514.867 505.682Z" fill="#292828"/>
<path d="M483.278 473.566L481.429 471.717L482.507 472.473L481.974 471.717L483.253 472.995L505.205 488.387C507.882 488.151 510.859 487.797 513.917 487.316C515.551 471.021 520.973 455.467 534.719 465.978C550.471 478.024 530.941 484.637 513.917 487.316C513.365 492.828 513.246 498.426 513.385 503.127L513.673 503.416C513.58 503.412 513.487 503.408 513.393 503.404C513.396 503.5 513.4 503.595 513.403 503.69L513.106 503.393C508.484 503.22 502.985 503.293 497.573 503.793C495.073 520.515 488.723 539.671 476.751 524.082C466.304 510.481 481.56 505.271 497.573 503.793C498.022 500.789 498.346 497.863 498.557 495.232L483.278 473.566Z" fill="#292828"/>
<path d="M243.871 676.484L250.065 670.29L246.453 672.822L248.239 670.29L243.955 674.574L170.574 726.025C161.623 725.237 151.668 724.052 141.443 722.444C135.981 667.965 117.852 615.959 71.8955 651.102C19.2262 691.379 84.5251 713.49 141.443 722.444C143.291 740.874 143.689 759.587 143.224 775.305L142.256 776.273C142.568 776.26 142.881 776.247 143.195 776.235C143.185 776.555 143.174 776.874 143.163 777.192L144.158 776.197C159.611 775.618 177.994 775.863 196.087 777.533C204.445 833.442 225.676 897.49 265.704 845.371C300.631 799.895 249.625 782.475 196.087 777.533C194.586 767.49 193.5 757.708 192.795 748.911L243.871 676.484Z" fill="#292828"/>
<path d="M289.309 630.533L294.548 625.293L291.493 627.436L293.004 625.293L289.38 628.918L227.348 672.411C219.781 671.744 211.366 670.743 202.722 669.383C198.105 623.328 182.779 579.363 143.928 609.073C99.4025 643.122 154.605 661.814 202.722 669.383C204.284 684.963 204.62 700.783 204.227 714.07L203.408 714.889C203.672 714.878 203.937 714.867 204.203 714.856C204.194 715.127 204.185 715.397 204.176 715.666L205.017 714.825C218.08 714.335 233.62 714.542 248.916 715.954C255.981 763.218 273.929 817.363 307.768 773.303C337.295 734.858 294.176 720.132 248.916 715.954C247.647 707.463 246.729 699.195 246.133 691.757L289.309 630.533Z" fill="#292828"/>
<path d="M337.513 581.784L342.16 577.137L339.487 579.074L340.852 577.199L337.638 580.413L283.38 619.722C277 619.462 269.917 618.952 262.654 618.148C260.594 579.345 249.385 542.742 215.302 569.452C176.242 600.064 222.224 613.671 262.654 618.148C263.35 631.275 263 644.653 262.134 655.917L261.407 656.644C261.631 656.623 261.856 656.604 262.082 656.584C262.064 656.814 262.045 657.042 262.027 657.27L262.773 656.524C273.851 655.586 286.998 655.137 299.89 655.718C303.974 695.446 316.994 740.562 347.409 701.904C373.949 668.173 338.037 657.438 299.89 655.718C299.156 648.581 298.711 641.618 298.505 635.346L337.513 581.784Z" fill="#292828"/>
<path d="M379.985 538.811L383.279 535.517L381.358 536.864L382.308 535.517L380.03 537.796L340.994 565.165C336.233 564.746 330.938 564.116 325.498 563.26C322.593 534.281 312.95 506.617 288.503 525.311C260.486 546.736 295.221 558.497 325.498 563.26C326.481 573.064 326.693 583.019 326.446 591.38L325.931 591.894C326.097 591.887 326.263 591.881 326.43 591.874C326.425 592.044 326.419 592.214 326.414 592.383L326.943 591.854C335.163 591.546 344.941 591.676 354.566 592.565C359.012 622.305 370.306 656.375 391.598 628.651C410.178 604.46 383.045 595.193 354.566 592.565C353.768 587.222 353.19 582.019 352.815 577.339L379.985 538.811Z" fill="#292828"/>
<path d="M412.866 505.682L415.709 502.84L414.051 504.002L414.871 502.84L412.905 504.805L379.377 528.313C375.286 527.953 370.736 527.412 366.063 526.677C363.566 501.777 355.281 478.007 334.276 494.07C310.203 512.478 340.048 522.584 366.063 526.677C366.907 535.099 367.089 543.651 366.877 550.834L366.431 551.28C366.574 551.273 366.719 551.268 366.864 551.262C366.859 551.408 366.854 551.554 366.849 551.699L367.304 551.245C374.366 550.98 382.766 551.092 391.035 551.855C394.855 577.409 404.558 606.682 422.853 582.861C438.817 562.076 415.504 554.114 391.035 551.855C390.349 547.265 389.852 542.794 389.53 538.773L412.866 505.682Z" fill="#292828"/>
<path d="M444.453 473.567L446.303 471.717L445.224 472.473L445.758 471.717L444.478 472.996L422.527 488.387C419.85 488.151 416.873 487.797 413.815 487.316C412.181 471.021 406.759 455.467 393.013 465.978C377.26 478.024 396.791 484.638 413.815 487.316C414.367 492.828 414.486 498.426 414.347 503.127L414.059 503.415C414.152 503.412 414.245 503.408 414.339 503.404C414.336 503.5 414.332 503.595 414.329 503.69L414.627 503.393C419.249 503.22 424.747 503.293 430.159 503.792C432.659 520.514 439.009 539.67 450.981 524.082C461.428 510.48 446.172 505.27 430.159 503.792C429.71 500.788 429.386 497.863 429.175 495.231L444.453 473.567Z" fill="#292828"/>
<path d="M251.179 238.22L257.374 244.415L253.761 241.882L255.548 244.416L251.263 240.13L177.883 188.68C168.931 189.469 158.977 190.653 148.752 192.261C143.29 246.74 125.161 298.746 79.2043 263.603C26.535 223.326 91.8339 201.215 148.752 192.261C150.599 173.831 150.997 155.118 150.533 139.4L149.564 138.432C149.876 138.445 150.189 138.458 150.504 138.471C150.494 138.15 150.483 137.831 150.472 137.513L151.467 138.508C166.92 139.087 185.303 138.842 203.396 137.172C211.754 81.263 232.985 17.215 273.013 69.334C307.94 114.811 256.934 132.231 203.396 137.172C201.895 147.216 200.809 156.997 200.104 165.795L251.179 238.22Z" fill="#292828"/>
<path d="M296.617 284.172L301.856 289.412L298.801 287.269L300.312 289.412L296.688 285.788L234.656 242.294C227.089 242.961 218.673 243.962 210.029 245.322C205.412 291.377 190.086 335.342 151.236 305.632C106.71 271.583 161.912 252.892 210.029 245.322C211.591 229.742 211.928 213.922 211.535 200.635L210.716 199.816C210.98 199.827 211.245 199.838 211.511 199.849C211.502 199.578 211.493 199.308 211.484 199.039L212.325 199.88C225.388 200.37 240.928 200.163 256.224 198.751C263.289 151.487 281.237 97.3419 315.076 141.402C344.602 179.847 301.483 194.573 256.224 198.751C254.955 207.242 254.036 215.51 253.441 222.948L296.617 284.172Z" fill="#292828"/>
<path d="M344.824 332.922L349.47 337.568L346.797 335.632L348.162 337.506L344.949 334.293L290.689 294.983C284.31 295.243 277.226 295.753 269.963 296.557C267.903 335.36 256.694 371.964 222.612 345.253C183.552 314.641 229.533 301.034 269.963 296.557C270.66 283.43 270.31 270.052 269.444 258.788L268.717 258.061C268.941 258.081 269.166 258.101 269.391 258.121C269.373 257.891 269.355 257.663 269.336 257.435L270.082 258.18C281.16 259.119 294.307 259.568 307.199 258.986C311.283 219.258 324.303 174.142 354.719 212.8C381.258 246.531 345.347 257.267 307.199 258.986C306.466 266.123 306.021 273.086 305.815 279.359L344.824 332.922Z" fill="#292828"/>
<path d="M387.291 375.893L390.586 379.187L388.665 377.84L389.615 379.187L387.336 376.909L348.301 349.539C343.539 349.959 338.244 350.589 332.805 351.444C329.9 380.424 320.256 408.088 295.81 389.394C267.793 367.969 302.528 356.208 332.805 351.444C333.788 341.64 334 331.686 333.752 323.325L333.238 322.81C333.403 322.817 333.57 322.824 333.737 322.831C333.732 322.66 333.726 322.491 333.72 322.322L334.249 322.851C342.469 323.159 352.248 323.029 361.873 322.14C366.319 292.4 377.612 258.33 398.905 286.054C417.484 310.245 390.352 319.512 361.873 322.14C361.074 327.483 360.497 332.686 360.122 337.366L387.291 375.893Z" fill="#292828"/>
<path d="M420.181 409.03L423.017 411.865L421.363 410.706L422.181 411.865L420.219 409.904L386.685 386.391C382.594 386.752 378.044 387.293 373.371 388.028C370.874 412.928 362.588 436.698 341.584 420.635C317.511 402.227 347.356 392.121 373.371 388.028C374.215 379.605 374.397 371.053 374.185 363.869L373.741 363.425C373.884 363.432 374.027 363.437 374.171 363.443C374.167 363.297 374.162 363.151 374.157 363.006L374.612 363.46C381.674 363.725 390.075 363.613 398.345 362.85C402.164 337.296 411.868 308.023 430.163 331.844C446.127 352.629 422.814 360.591 398.345 362.85C397.658 367.44 397.162 371.911 396.84 375.932L420.181 409.03Z" fill="#292828"/>
<path d="M451.769 441.146L453.61 442.988L452.536 442.235L453.067 442.988L451.794 441.714L429.835 426.318C427.158 426.554 424.181 426.908 421.122 427.389C419.489 443.684 414.067 459.238 400.321 448.727C384.568 436.681 404.099 430.068 421.122 427.389C421.675 421.876 421.794 416.277 421.655 411.576L421.368 411.289C421.461 411.293 421.553 411.297 421.646 411.301C421.643 411.205 421.64 411.11 421.637 411.015L421.934 411.312C426.557 411.485 432.056 411.412 437.469 410.912C439.969 394.19 446.319 375.034 458.291 390.623C468.737 404.224 453.482 409.434 437.469 410.912C437.02 413.916 436.695 416.842 436.484 419.473L451.769 441.146Z" fill="#292828"/>
</g>
<defs>
<filter id="filter0_di_13_1386" x="0" y="0" width="935.043" height="924.705" filterUnits="userSpaceOnUse" color-interpolation-filters="sRGB">
<feFlood flood-opacity="0" result="BackgroundImageFix"/>
<feColorMatrix in="SourceAlpha" type="matrix" values="0 0 0 0 0 0 0 0 0 0 0 0 0 0 0 0 0 0 127 0" result="hardAlpha"/>
<feOffset dy="5"/>
<feGaussianBlur stdDeviation="6"/>
<feComposite in2="hardAlpha" operator="out"/>
<feColorMatrix type="matrix" values="0 0 0 0 0 0 0 0 0 0 0 0 0 0 0 0 0 0 0.1 0"/>
<feBlend mode="normal" in2="BackgroundImageFix" result="effect1_dropShadow_13_1386"/>
<feBlend mode="normal" in="SourceGraphic" in2="effect1_dropShadow_13_1386" result="shape"/>
<feColorMatrix in="SourceAlpha" type="matrix" values="0 0 0 0 0 0 0 0 0 0 0 0 0 0 0 0 0 0 127 0" result="hardAlpha"/>
<feOffset dy="4"/>
<feGaussianBlur stdDeviation="4.5"/>
<feComposite in2="hardAlpha" operator="arithmetic" k2="-1" k3="1"/>
<feColorMatrix type="matrix" values="0 0 0 0 0 0 0 0 0 0 0 0 0 0 0 0 0 0 0.12 0"/>
<feBlend mode="normal" in2="shape" result="effect2_innerShadow_13_1386"/>
</filter>
</defs>
</svg>
