<svg width="24" height="24" viewBox="0 0 24 24" fill="none" xmlns="http://www.w3.org/2000/svg">
<path d="M21 2H3C2.73478 2 2.48043 2.10536 2.29289 2.29289C2.10536 2.48043 2 2.73478 2 3V21C2 21.2652 2.10536 21.5196 2.29289 21.7071C2.48043 21.8946 2.73478 22 3 22H21C21.2652 22 21.5196 21.8946 21.7071 21.7071C21.8946 21.5196 22 21.2652 22 21V3C22 2.73478 21.8946 2.48043 21.7071 2.29289C21.5196 2.10536 21.2652 2 21 2ZM17.719 10.3964C17.719 10.5829 17.5774 10.7408 17.391 10.742C16.7977 10.7428 16.2135 10.5957 15.6913 10.3141C15.229 10.0648 14.4 10.3745 14.4 10.8998V14.622C14.4002 15.4253 14.1622 16.2106 13.716 16.8785C13.2699 17.5465 12.6356 18.0672 11.8935 18.3747C11.1514 18.6822 10.3348 18.7627 9.54698 18.606C8.75913 18.4494 8.03544 18.0626 7.46744 17.4946C6.89944 16.9266 6.51264 16.2029 6.35598 15.415C6.19932 14.6272 6.27983 13.8106 6.58732 13.0685C6.89481 12.3264 7.41547 11.6921 8.08345 11.246C8.75143 10.7998 9.53673 10.5618 10.34 10.562C10.4812 10.562 10.591 10.6852 10.591 10.8264V11.7325C10.591 12.1804 10.1868 12.5178 9.75717 12.6446C9.48688 12.7244 9.23576 12.8586 9.01925 13.039C8.80274 13.2194 8.62541 13.4422 8.49815 13.6937C8.3709 13.9451 8.29641 14.22 8.27927 14.5013C8.26213 14.7826 8.3027 15.0644 8.39847 15.3295C8.49425 15.5945 8.64322 15.8372 8.83622 16.0426C9.02923 16.2479 9.26219 16.4116 9.52079 16.5237C9.77939 16.6357 10.0582 16.6937 10.34 16.694C10.8962 16.7041 11.4341 16.4954 11.838 16.113C12.2419 15.7306 12.4797 15.2049 12.5 14.649L12.5179 6.31586C12.519 5.76441 12.9747 5.318 13.5261 5.318C14.038 5.318 14.4606 5.71269 14.6396 6.19217C14.8236 6.68486 15.1157 7.13432 15.4988 7.5054C15.8748 7.8696 16.3234 8.14378 16.811 8.31283C17.3062 8.4845 17.719 8.90562 17.719 9.42966V10.3964Z" fill="#9B9C9F"/>
</svg>
