<svg width="24" height="20" viewBox="0 0 24 20" fill="none" xmlns="http://www.w3.org/2000/svg">
<path d="M7.539 19.5001C16.596 19.5001 21.5505 11.9956 21.5505 5.49906C21.5525 5.28806 21.5495 5.07706 21.5415 4.86606C22.5058 4.16743 23.3382 3.30299 24 2.31306C23.0987 2.70947 22.144 2.97127 21.1665 3.09006C22.1964 2.47462 22.9677 1.50608 23.337 0.364563C22.3699 0.938644 21.3108 1.34108 20.2065 1.55406C19.4643 0.763599 18.4821 0.23994 17.4121 0.0641994C16.3421 -0.111541 15.2441 0.0704453 14.288 0.581969C13.3319 1.09349 12.5712 1.90601 12.1237 2.89365C11.6761 3.8813 11.5668 4.98896 11.8125 6.04506C9.85452 5.94735 7.93897 5.43893 6.19024 4.55281C4.44152 3.66669 2.89871 2.42268 1.662 0.901563C1.03437 1.98628 0.842925 3.26914 1.12651 4.48984C1.4101 5.71053 2.14747 6.77762 3.189 7.47456C2.40811 7.44933 1.64429 7.23961 0.96 6.86256V6.93006C0.961909 8.06613 1.35573 9.16676 2.07499 10.0462C2.79424 10.9255 3.79488 11.5299 4.908 11.7571C4.48541 11.8735 4.04885 11.9316 3.6105 11.9296C3.30138 11.9328 2.99275 11.9041 2.6895 11.8441C3.00359 12.8225 3.61616 13.678 4.44125 14.2906C5.26634 14.9032 6.26253 15.242 7.29 15.2596C5.54415 16.629 3.38887 17.3723 1.17 17.3701C0.778948 17.373 0.388119 17.3505 0 17.3026C2.25213 18.7388 4.8679 19.5012 7.539 19.5001Z" fill="#A4A4A4"/>
</svg>
